<svg height="512" viewBox="0 0 128 128" width="512" xmlns="http://www.w3.org/2000/svg"><linearGradient id="a" gradientUnits="userSpaceOnUse" x1="110.968" x2="17.031" y1="110.968" y2="17.032"><stop offset="0" stop-color="#f35d2e"/><stop offset="1" stop-color="#ffde3e"/></linearGradient><path d="M123.365 54.587c-.5-3.152-3.495-7.281-8.892-12.283a8.632 8.632 0 002.753-6.3c0-17.341-14.559-31.449-32.455-31.449h-4.939a1.75 1.75 0 000 3.5h4.939c15.966 0 28.955 12.538 28.955 27.949a5.4 5.4 0 01-5.511 5.273h-88.43a5.4 5.4 0 01-5.511-5.273c0-15.411 12.989-27.949 28.955-27.949h28.36a1.75 1.75 0 000-3.5h-28.36c-17.9 0-32.455 14.108-32.455 31.449a8.634 8.634 0 002.753 6.3c-5.4 5-8.39 9.129-8.892 12.282-.313 1.967.409 2.933 1.071 3.4 1.874 1.312 4.5-.144 8.482-2.35.733-.406 1.513-.837 2.3-1.253a9.357 9.357 0 00-.128 1.508v3.087a9.374 9.374 0 003.949 7.636 9.377 9.377 0 00-3.949 7.637v3.086a9.346 9.346 0 002.161 5.984 8.859 8.859 0 00-7.748 8.676c0 17.341 14.559 31.449 32.455 31.449h3.9a1.75 1.75 0 000-3.5h-3.9c-15.966 0-28.955-12.538-28.955-27.949a5.4 5.4 0 015.511-5.273h10.773v1.612a6.714 6.714 0 006.707 6.706h1.6a6.714 6.714 0 006.706-6.706v-1.615h20.065v.1a6.942 6.942 0 006.934 6.934A3.439 3.439 0 0176 97.2v6.222a6.942 6.942 0 006.934 6.934h1.7a6.942 6.942 0 006.934-6.934v-16.7h16.645a5.4 5.4 0 015.511 5.273c0 15.411-12.989 27.949-28.955 27.949H68.526a1.75 1.75 0 000 3.5h16.245c17.9 0 32.455-14.108 32.455-31.449a8.86 8.86 0 00-7.748-8.676 9.346 9.346 0 002.161-5.984v-3.087a9.377 9.377 0 00-3.949-7.637 9.374 9.374 0 003.949-7.636v-3.087a9.495 9.495 0 00-.128-1.509c.788.417 1.568.848 2.3 1.254 2.936 1.628 5.136 2.848 6.842 2.848a2.769 2.769 0 001.64-.5c.662-.461 1.385-1.427 1.072-3.394zM25.748 83.221a5.893 5.893 0 01-5.887-5.887v-3.086a5.894 5.894 0 015.887-5.887h4.809v14.86zm16.319 5.112a3.209 3.209 0 01-3.206 3.206h-1.6a3.21 3.21 0 01-3.207-3.206V68.361h8.01zm3.5-19.972H51.5v6.4a6.943 6.943 0 006.935 6.935H62.2a3.432 3.432 0 012.854 1.527H45.567zm42.5 35.056a3.438 3.438 0 01-3.434 3.434h-1.7a3.438 3.438 0 01-3.434-3.434V97.2a6.942 6.942 0 00-6.935-6.935 3.438 3.438 0 01-3.434-3.434v-1.7c0-.035-.005-.07-.006-.105 0-.018.006-.035.006-.053 0-.054-.011-.106-.016-.16a6.937 6.937 0 00-6.914-6.619h-3.77A3.439 3.439 0 0155 74.759v-6.4h44.01v2.246a3.439 3.439 0 01-3.435 3.435h-.565a6.942 6.942 0 00-6.935 6.934zm20.069-26.083a5.893 5.893 0 01-5.887 5.887H91.57v-2.245a3.438 3.438 0 013.435-3.434h.565a6.942 6.942 0 006.935-6.935v-2.233a5.889 5.889 0 015.634 5.874zm0-21.446v3.087a5.893 5.893 0 01-5.887 5.886h-76.5a5.893 5.893 0 01-5.887-5.886v-3.087a5.867 5.867 0 011.163-3.474 5.6 5.6 0 011.422-.24c1.065 0 2.179 1.041 3.47 2.246 1.91 1.784 4.287 4 7.941 4h.005c4.437 0 7.219-1.6 9.673-3.01 1.96-1.125 3.652-2.1 5.984-2.1 2.606 0 4 .952 5.773 2.158a14.147 14.147 0 0017.417 0c1.77-1.206 3.167-2.158 5.772-2.158 2.331 0 4.025.972 5.984 2.1 2.454 1.41 5.236 3.007 9.673 3.01h.006c3.653 0 6.03-2.22 7.94-4 1.29-1.206 2.405-2.247 3.471-2.247a5.622 5.622 0 011.42.239 5.862 5.862 0 011.163 3.476zm7.369-3.316a44.124 44.124 0 00-6.784-3.282 1.763 1.763 0 00-.337-.108 9.67 9.67 0 00-2.832-.508c-2.446 0-4.182 1.621-5.861 3.189s-3.277 3.061-5.55 3.061c-3.5 0-5.655-1.237-7.932-2.545-2.193-1.26-4.462-2.562-7.727-2.562a12.575 12.575 0 00-7.743 2.765 10.69 10.69 0 01-13.476 0 12.571 12.571 0 00-7.743-2.765c-3.265 0-5.533 1.3-7.727 2.562-2.277 1.308-4.428 2.542-7.932 2.545-2.274 0-3.866-1.487-5.552-3.062s-3.414-3.188-5.859-3.188a9.681 9.681 0 00-2.856.516 1.724 1.724 0 00-.267.085 43.7 43.7 0 00-6.831 3.3 42.035 42.035 0 01-4.324 2.2c.616-2.418 3.651-6.2 8.457-10.558a9.16 9.16 0 003.16.568h88.43a9.16 9.16 0 003.16-.568c4.807 4.354 7.841 8.141 8.457 10.559a42.054 42.054 0 01-4.328-2.204zm-53.47 69.121a1.75 1.75 0 01-1.75 1.75h-4.5a1.75 1.75 0 010-3.5h4.5a1.751 1.751 0 011.753 1.75zm-25.222-11.23a1.75 1.75 0 11-.986 3.359 23.772 23.772 0 01-15.562-14.443 1.75 1.75 0 013.328-1.079 20.235 20.235 0 0013.223 12.163zm60.096-79.285l-1.98-1.98a1.75 1.75 0 112.471-2.475l1.981 1.98a1.75 1.75 0 01-2.475 2.475zm-65.963-2.322a1.75 1.75 0 01.327 2.453l-1.549 2.026a1.75 1.75 0 11-2.781-2.126l1.55-2.026a1.75 1.75 0 012.453-.327zm36.876 1.077l.953 1.31a1.75 1.75 0 11-2.83 2.058l-.953-1.311a1.749 1.749 0 112.83-2.057zm-14.94-13.46a1.75 1.75 0 010 3.5h-2.741a1.75 1.75 0 010-3.5zM76.4 19.751l1.044-2.261a1.75 1.75 0 113.178 1.467l-1.044 2.261a1.751 1.751 0 01-1.59 1.017 1.752 1.752 0 01-1.588-2.484z" fill="url(#a)"/></svg>