<svg xmlns="http://www.w3.org/2000/svg" viewBox="0 0 612.322 612.322"><path d="M187.57 359.458h360.895l63.856-227.934h-93.973l-33.74-104.22L343.9 72.916l19.244 58.608h-6.623l-34.74-104.22-140.709 45.612 19.244 58.608h-75.228l-15.62-62.482c-7.873-31.241-35.115-53.359-66.481-53.359H0V41.8h42.987c19.494 0 36.489 12.996 41.738 32.616l69.105 270.421c-14.246 10.247-23.618 26.992-23.618 46.112 0 31.241 26.117 57.358 57.358 57.358h351.773V422.19H187.57c-16.995 0-31.241-14.371-31.241-31.241.001-17.12 14.371-31.491 31.241-31.491zM467.739 59.795l23.493 70.355H389.637l-14.371-40.363 92.473-29.992zm-162.828 0l23.493 70.355H226.809l-14.371-40.363 92.473-29.992zm273.546 96.472l-49.486 177.199H177.198l-45.612-177.198 446.871-.001zM424.751 487.171c-29.991 0-54.734 24.743-54.734 54.734 0 29.991 24.743 54.734 54.734 54.734 31.241 0 54.734-24.743 54.734-54.734.001-29.991-24.742-54.734-54.734-54.734zm0 84.725c-16.995 0-29.991-14.371-29.991-29.991 0-16.995 14.371-29.991 29.991-29.991 16.995 0 29.991 12.996 29.991 29.991.001 16.995-14.37 29.991-29.991 29.991zM224.06 487.171c-29.991 0-54.734 24.743-54.734 54.734 0 29.991 24.743 54.734 54.734 54.734s54.734-24.743 54.734-54.734c0-29.991-24.743-54.734-54.734-54.734zm0 84.725c-16.995 0-29.991-14.371-29.991-29.991 0-16.995 14.371-29.991 29.991-29.991s29.991 12.996 29.991 29.991c0 16.995-14.371 29.991-29.991 29.991z"/></svg>