<svg xmlns="http://www.w3.org/2000/svg" viewBox="0 0 512 512"><path d="M263.282 261.665a7.5 7.5 0 00-7.499 7.499v10.316a7.5 7.5 0 0014.998 0v-10.316a7.5 7.5 0 00-7.499-7.499zM377.285 261.665a7.5 7.5 0 00-7.499 7.499v10.316a7.5 7.5 0 0014.998 0v-10.316a7.5 7.5 0 00-7.499-7.499zM342.505 273.81a7.499 7.499 0 00-10.582.711c-2.824 3.231-7.066 5.084-11.639 5.084-4.573 0-8.815-1.853-11.639-5.084-2.727-3.119-7.463-3.437-10.582-.711s-3.437 7.463-.711 10.582c5.672 6.489 14.031 10.211 22.932 10.211s17.259-3.722 22.932-10.211a7.5 7.5 0 00-.711-10.582z"/><path d="M505.475 327.517L336.973 152.369c-4.407-4.581-10.333-7.103-16.69-7.103H191.715c-6.356 0-12.284 2.523-16.69 7.103L6.524 327.517c-6.548 6.807-8.319 16.435-4.621 25.126 3.699 8.691 11.864 14.091 21.31 14.091h465.571c9.446 0 17.611-5.398 21.311-14.091 3.699-8.691 1.93-18.319-4.62-25.126zM23.214 351.735c-5.008 0-7.013-3.801-7.509-4.966s-1.843-5.246 1.628-8.854l168.502-175.148a8.093 8.093 0 015.881-2.503h18.542L26.052 351.735h-2.838zm106.892-.001c0 .001-24.261-.011-24.367-.014-4.771-.159-6.709-3.811-7.195-4.951a8.108 8.108 0 011.628-8.854l107.367-111.603c2.782-2.892 2.694-7.814-.205-10.604a7.497 7.497 0 00-10.603.205L89.364 327.516c-6.11 6.351-8.109 15.975-4.986 24.218H46.865L231.07 160.263h19.199l-33.859 35.194a7.498 7.498 0 00.205 10.603 7.498 7.498 0 0010.603-.205l41.455-43.089c1.449-1.507 3.585-2.453 5.715-2.495.056-.001.11-.008.166-.008h21.441L135.089 327.516c-6.154 6.4-8.147 15.902-4.983 24.218zm366.189-4.964c-.496 1.165-2.502 4.966-7.509 4.966H151.782c-5.008 0-7.014-3.801-7.509-4.966-.496-1.165-1.844-5.246 1.628-8.854l168.501-175.148a8.093 8.093 0 015.881-2.503 8.09 8.09 0 015.881 2.503l168.502 175.148c3.472 3.608 2.125 7.689 1.629 8.854z"/></svg>