<svg height="512" viewBox="0 0 61 60" width="512" xmlns="http://www.w3.org/2000/svg"><path d="M50.48 30.56a14.31 14.31 0 005.29-3.92C61 20.38 60 12.2 60 11.85 59.88 5.31 51.86 0 42 0S24 5.37 24 12v.66a25.27 25.27 0 004.41 13l-.77 1.32-2.32-4a3.84 3.84 0 00-6.68 0L.57 53.83A4.07 4.07 0 003.92 60h36.16a4.07 4.07 0 003.35-6.17L42.35 52h13.73a4.06 4.06 0 003.34-6.17zm-1-1.73L46.4 23.6c4.89-.8 8.89-2.89 11.25-5.68-.99 4.92-3.6 8.98-8.18 10.91zM34.66 15l-.82 1.39a7.62 7.62 0 01-3.33-2.67c4.43-4.89 18.54-4.9 23 0C52.07 16 47.9 17.73 43.1 18l-1.76-3a3.82 3.82 0 00-6.68 0zm-4.59-3.59C30.72 8.4 35.92 6 42 6s11.28 2.4 11.93 5.37c-5.7-4.49-18.16-4.5-23.86 0zM42 2c8.82 0 16 4.48 16 10 0 4.67-5.41 8.79-12.69 9.75l-1.08-1.85c5.57-.49 10-2.77 11.37-5.93A4.9 4.9 0 0056 12c0-4.49-6.15-8-14-8-13.38 0-18.68 9.42-9.17 14.08l-.94 1.6C28.72 18.06 26.05 15.56 26 12c-.08-5.52 7.18-10 16-10zM27.28 18.92a15.87 15.87 0 003.59 2.5l-1.32 2.26a21 21 0 01-2.27-4.76zM2.3 54.84L20.38 24a1.85 1.85 0 013.24 0l1.28 2.2c-.13 5.18.25 20.92 8.94 31.84H3.92a2.07 2.07 0 01-1.62-3.2zM40.08 58h-3.63c-7.76-8.67-9.31-21.41-9.53-28.41L41.7 54.84A2.06 2.06 0 0140.08 58zM28.82 28.89c3.08-5.27 5.76-9.84 7.56-12.93a1.84 1.84 0 013.24 0l1.28 2.2c-.13 5.19.26 20.92 8.94 31.84h-8.66zM56.08 50h-3.63c-7.76-8.67-9.31-21.41-9.53-28.4 8.28 14.14 7.61 13 14.78 25.25A2.06 2.06 0 0156.08 50z"/></svg>