<svg height="512" viewBox="0 0 64 64" width="512" xmlns="http://www.w3.org/2000/svg"><path d="M44 1c-4.625 0-8.442 3.507-8.941 8h-7.503l-.122-1.551C27.148 3.833 24.083 1 20.455 1H14a1 1 0 00-1 1v3a1 1 0 001 1h6.246c1.047 0 1.903.786 1.993 1.829L22.34 9H12a1 1 0 00-.904 1.428l2.759 5.814c1.483 4.862 1.681 9.752.569 14.144a14.05 14.05 0 00-.392 4.398c.38 5.579 4.245 10.528 9.62 12.316A1.977 1.977 0 0125 48.984v1.576c0 2.488-1.812 4.57-4.307 4.95C14 56.528 14 58.389 14 59c0 3.888 12.567 4 14 4s14-.112 14-4c0-.611 0-2.472-6.693-3.49C32.812 55.13 31 53.048 31 50.56V49c0-.865.534-1.62 1.328-1.878A13.959 13.959 0 0042 33.813a14 14 0 00-.316-2.963c-.926-4.27-.97-8.363-.158-12.204.8.229 1.627.354 2.474.354 4.963 0 9-4.038 9-9s-4.037-9-9-9zm2.019 5.567A3.915 3.915 0 0045 6.142V3.08a6.947 6.947 0 013.184 1.322zM43 6.142a3.915 3.915 0 00-1.019.425l-2.165-2.165A6.947 6.947 0 0143 3.08zM44 8c1.103 0 2 .897 2 2a1.996 1.996 0 01-1.823 1.982l.729-1.559A1 1 0 0044 9h-1.722c.347-.595.985-1 1.722-1zm1 5.858a3.915 3.915 0 001.019-.425l2.165 2.165A6.947 6.947 0 0145 16.92zm2.433-1.839A4 4 0 0047.858 11h3.062a6.947 6.947 0 01-1.322 3.184zM47.858 9a3.915 3.915 0 00-.425-1.019l2.165-2.165A6.947 6.947 0 0150.92 9zm-9.456-3.184l2.165 2.165A3.915 3.915 0 0040.142 9H37.08a6.947 6.947 0 011.322-3.184zM42.429 11l-2.204 4.714c-.02.042-.036.085-.05.129A27.26 27.26 0 0039.419 19h-4.297a6.077 6.077 0 00-4.328 1.793 4.08 4.08 0 01-2.216 1.139L27.714 11zM26.121 24h.613l1.184 15h-1L25.63 23.976c.163.013.326.024.491.024zm-.666-2.065L24.518 11h1.19l.868 11h-.455a4.21 4.21 0 01-.666-.065zM24.231 7.658A3.975 3.975 0 0020.246 4H15V3h5.455c2.592 0 4.781 2.023 4.984 4.606L25.549 9h-1.203zm-8.538 7.794L13.581 11h8.93l.85 9.92c-.05-.045-.107-.079-.154-.127A6.077 6.077 0 0018.879 19h-2.294a32.221 32.221 0 00-.839-3.414 1.037 1.037 0 00-.053-.134zm19.313 42.035c3.287.5 4.598 1.203 4.934 1.518C39.207 59.772 34.912 61 28 61s-11.207-1.228-11.939-1.995c.336-.315 1.646-1.018 4.934-1.518C24.475 56.958 27 54.044 27 50.56v-.702c.324.084.656.142 1 .142s.676-.058 1-.141v.701c0 3.484 2.525 6.398 6.006 6.927zM31.711 45.22a3.897 3.897 0 00-2.416 2.291c-.728.614-1.856.616-2.585.003a3.954 3.954 0 00-2.425-2.31c-4.613-1.535-7.931-5.776-8.255-10.554a11.992 11.992 0 01.335-3.772c.79-3.123.959-6.47.537-9.877h1.978c1.102 0 2.136.429 2.914 1.207a6.11 6.11 0 001.784 1.236l1.426 16.643A.998.998 0 0026 41h3a1.001 1.001 0 00.997-1.078l-1.262-15.988a6.061 6.061 0 003.472-1.727A4.094 4.094 0 0135.121 21h4.004c-.359 3.293-.166 6.729.603 10.273.181.83.271 1.684.271 2.54a11.962 11.962 0 01-8.288 11.407zm10.355-28.723L43 14.5v2.42a6.951 6.951 0 01-.99-.213c.021-.069.035-.14.056-.21z"/><path d="M34 28h2v2h-2zM33 39h2v2h-2zM20 34h2v2h-2zM31 33h2v2h-2z"/></svg>