<svg xmlns="http://www.w3.org/2000/svg" viewBox="0 0 511.999 511.999"><path d="M176.977 346.036a7.5 7.5 0 00-7.5 7.5v14.301a7.5 7.5 0 0015 0v-14.301a7.5 7.5 0 00-7.5-7.5zM335.017 346.036a7.5 7.5 0 00-7.5 7.5v14.301a7.5 7.5 0 0015 0v-14.301a7.5 7.5 0 00-7.5-7.5zM284.895 362.158a7.5 7.5 0 00-10.583.71c-4.465 5.108-11.141 8.038-18.316 8.038s-13.851-2.93-18.316-8.038a7.5 7.5 0 00-11.294 9.872c7.316 8.368 18.108 13.167 29.611 13.167s22.295-4.799 29.609-13.166a7.5 7.5 0 00-.711-10.583z"/><path d="M466.053 98.345a22.09 22.09 0 00-14.451-8.991l-29.134-4.817a22.09 22.09 0 00-11.458 1.137v-2.463c0-12.262-9.976-22.237-22.237-22.237h-29.53c-2.534 0-4.967.432-7.237 1.216v-9.465c0-12.262-9.976-22.237-22.237-22.237h-29.53c-2.534 0-4.967.432-7.237 1.216v-9.465C293 9.976 283.024 0 270.762 0h-29.53c-12.262 0-22.237 9.976-22.237 22.237v9.465a22.133 22.133 0 00-7.237-1.216h-29.53c-12.262 0-22.237 9.976-22.237 22.237v9.465a22.133 22.133 0 00-7.237-1.216h-29.53c-12.262 0-22.237 9.976-22.237 22.237v2.464a22.101 22.101 0 00-11.458-1.138l-29.135 4.817c-12.097 2-20.312 13.47-18.312 25.567l21.663 131.022c-.277.187-.56.372-.836.56-9.078 6.185-13.348 17.488-10.624 28.129l11.49 44.859a7.5 7.5 0 009.126 5.405 7.498 7.498 0 005.404-9.126L66.816 270.91a11.212 11.212 0 014.537-12.011c28.481-19.401 60.431-33.26 92.545-45.433 6.113-2.317 7.115 5.659 8.513 9.4 7.843 21.106 26.755 38.154 51.767 46.28.025.009.052.011.078.019 42.027 13.471 98.774-1.68 115.339-46.327l.027-.075c1.269-3.406 1.462-8.903 5.972-9.565 4.886-.716 66.343 27.069 90.394 42.621 5.471 3.538 11.104 7.619 9.192 15.09l-45.394 177.23H112.21l-25.253-98.596a7.5 7.5 0 00-14.531 3.721l31.475 122.865c5.408 21.12 24.413 35.87 46.217 35.87h211.761c21.805 0 40.811-14.751 46.217-35.87l51.615-201.5c2.724-10.64-1.546-21.944-10.625-28.129-.275-.188-.558-.372-.835-.559l21.663-131.02a22.09 22.09 0 00-3.861-16.576zM100.986 224.494c-7.905 3.975-15.842 8.25-23.472 12.766L56.881 112.474c-.651-3.937 2.022-7.67 5.96-8.321l29.134-4.817c3.886-.643 7.679 2.073 8.321 5.959l.69 4.171v115.028zm59.004-25.529c-.47.139-.936.295-1.395.469-14.081 5.333-27.992 11.099-41.67 17.395-.314.145-.625.286-.94.432V83.211h.001c0-3.991 3.247-7.237 7.237-7.237h29.53c3.991 0 7.237 3.247 7.237 7.237v115.754zm59.004 51.956c-13.283-6.337-23.951-15.983-30.014-27.65-4.203-8.088-5.075-18.174-13.99-22.834V52.724c0-3.991 3.247-7.237 7.237-7.237h29.53c3.991 0 7.237 3.247 7.237 7.237v198.197zm59.005 5.436c-.17 4.156-44.005 3.202-44.005-.003l.001-234.117c0-3.991 3.247-7.237 7.237-7.237h29.53c3.991 0 7.237 3.247 7.237 7.237v234.12zm59.005-55.921c-4.89 2.556-8.64 7.236-10.012 12.588a51.142 51.142 0 01-3.914 10.122c-6.053 11.724-16.751 21.414-30.079 27.773V52.724c.001-3.991 3.247-7.237 7.238-7.237h29.53c3.991 0 7.237 3.247 7.237 7.237v147.712zm59.004 16.825c-13.973-6.472-28.202-12.379-42.605-17.825a19.834 19.834 0 00-1.4-.471V83.211c.001-3.991 3.248-7.237 7.238-7.237h29.53c3.991 0 7.237 3.247 7.237 7.237v134.05zm-2.444 255.146A32.691 32.691 0 01361.878 497H150.117a32.692 32.692 0 01-31.687-24.593l-.001-.003-2.375-9.265H395.94l-2.376 9.268zm61.55-359.934L434.481 237.26c-1.81-1.071-17.464-9.744-23.472-12.766V109.469c0-1.361.235-2.806.695-4.169 1.226-3.628 4.053-6.669 8.316-5.965l29.133 4.817c3.838.635 6.592 4.505 5.961 8.321z"/></svg>