<svg xmlns="http://www.w3.org/2000/svg" viewBox="0 0 512 512"><path d="M467.274 387.127a7.502 7.502 0 00-10.574.868 77.846 77.846 0 01-19.637 16.604 93.276 93.276 0 00-32.465 32.466c-13.781 23.202-39.108 37.824-66.092 38.158a93.272 93.272 0 00-44.347 11.883c-23.537 13.203-52.781 13.203-76.318 0a93.284 93.284 0 00-44.347-11.883c-26.986-.334-52.311-14.956-66.092-38.158a93.296 93.296 0 00-32.466-32.466c-23.202-13.782-37.824-39.107-38.158-66.092a93.261 93.261 0 00-11.883-44.347c-13.203-23.537-13.203-52.781 0-76.318a93.261 93.261 0 0011.883-44.347 77.75 77.75 0 014.794-25.944 7.504 7.504 0 00-14.082-5.182 92.726 92.726 0 00-5.715 30.939A78.221 78.221 0 0111.81 210.5c-15.743 28.066-15.743 62.934 0 90.999a78.217 78.217 0 019.965 37.194c.399 32.176 17.834 62.374 45.5 78.807a78.218 78.218 0 0127.228 27.226c16.433 27.666 46.63 45.101 78.807 45.5a78.22 78.22 0 0137.193 9.966C224.533 508.064 240.266 512 256 512s31.467-3.936 45.5-11.808a78.21 78.21 0 0137.192-9.965c32.177-.399 62.374-17.834 78.807-45.5a78.227 78.227 0 0127.227-27.227 92.793 92.793 0 0023.417-19.798 7.503 7.503 0 00-.869-10.575zM500.192 210.499a78.21 78.21 0 01-9.965-37.193c-.399-32.177-17.834-62.374-45.5-78.807A78.218 78.218 0 01417.5 67.272c-16.433-27.667-46.631-45.102-78.807-45.5a78.221 78.221 0 01-37.192-9.965c-28.066-15.743-62.934-15.743-91 0a78.21 78.21 0 01-37.192 9.965c-32.177.398-62.374 17.833-78.807 45.5a78.227 78.227 0 01-27.227 27.227 92.802 92.802 0 00-23.611 20.029 7.502 7.502 0 0011.473 9.669A77.762 77.762 0 0174.935 107.4 93.28 93.28 0 00107.4 74.936c13.782-23.203 39.108-37.825 66.092-38.158a93.268 93.268 0 0044.348-11.883c23.537-13.203 52.78-13.203 76.317 0a93.261 93.261 0 0044.347 11.883c26.986.334 52.31 14.956 66.092 38.158a93.265 93.265 0 0032.466 32.464c23.202 13.782 37.824 39.108 38.158 66.093a93.261 93.261 0 0011.883 44.347c13.203 23.537 13.203 52.78 0 76.318a93.296 93.296 0 00-11.882 44.348 77.729 77.729 0 01-4.904 26.247 7.502 7.502 0 0014.06 5.237 92.723 92.723 0 005.847-31.3 78.228 78.228 0 019.965-37.193c15.746-28.063 15.746-62.932.003-90.998z"/><path d="M277.485 56.784c-17.878 0-32.421 12.512-32.421 27.891s14.545 27.891 32.421 27.891c17.878.001 32.422-12.512 32.422-27.891.001-15.38-14.544-27.891-32.422-27.891zm0 40.778c-9.441 0-17.417-5.901-17.417-12.886s7.976-12.886 17.417-12.886c9.441 0 17.418 5.901 17.418 12.886s-7.977 12.886-17.418 12.886zM90.857 221.812c-17.878 0-32.422 12.512-32.422 27.891 0 15.38 14.545 27.892 32.422 27.892s32.422-12.513 32.422-27.892-14.544-27.891-32.422-27.891zm.001 40.777c-9.441 0-17.418-5.901-17.418-12.887 0-6.984 7.977-12.886 17.418-12.886s17.418 5.901 17.418 12.886c-.001 6.986-7.977 12.887-17.418 12.887zM247.785 390.489c-17.878 0-32.422 12.512-32.422 27.891 0 15.38 14.545 27.891 32.422 27.891 17.878 0 32.422-12.512 32.422-27.891s-14.545-27.891-32.422-27.891zm-.001 40.777c-9.441 0-17.418-5.901-17.418-12.886s7.977-12.886 17.418-12.886 17.418 5.901 17.418 12.886-7.977 12.886-17.418 12.886zM158.04 97.562c-26.05 0-47.245 17.952-47.245 40.019 0 22.067 21.195 40.019 47.245 40.019 26.05 0 47.245-17.953 47.245-40.019 0-22.067-21.195-40.019-47.245-40.019zm0 65.033c-17.777 0-32.24-11.222-32.24-25.014s14.463-25.014 32.24-25.014 32.24 11.222 32.24 25.014-14.463 25.014-32.24 25.014zM363.795 329.471c-22.442 0-40.699 15.55-40.699 34.663 0 19.114 18.257 34.663 40.699 34.663 22.442 0 40.699-15.55 40.699-34.663s-18.257-34.663-40.699-34.663zm0 54.321c-14.168 0-25.694-8.818-25.694-19.658s11.527-19.658 25.694-19.658c14.168 0 25.694 8.819 25.694 19.658s-11.526 19.658-25.694 19.658zM376.302 119.667c-21.129 0-38.318 14.676-38.318 32.716s17.19 32.716 38.318 32.716c21.129 0 38.318-14.676 38.318-32.716s-17.189-32.716-38.318-32.716zm0 50.426c-12.855 0-23.313-7.945-23.313-17.711 0-9.766 10.458-17.711 23.313-17.711 12.855 0 23.314 7.945 23.314 17.711 0 9.767-10.459 17.711-23.314 17.711zM419.468 225.64c-15.297 0-27.743 10.794-27.743 24.063 0 13.268 12.445 24.063 27.743 24.063s27.742-10.794 27.742-24.063c0-13.268-12.445-24.063-27.742-24.063zm0 33.121c-6.904 0-12.738-4.148-12.738-9.058s5.834-9.058 12.738-9.058 12.737 4.147 12.737 9.058-5.833 9.058-12.737 9.058zM135.829 340.071c-15.297 0-27.743 10.794-27.743 24.063s12.445 24.063 27.743 24.063c15.297 0 27.742-10.794 27.742-24.063-.001-13.268-12.446-24.063-27.742-24.063zm0 33.121c-6.904 0-12.738-4.148-12.738-9.058s5.833-9.058 12.738-9.058c6.904 0 12.737 4.147 12.737 9.058s-5.833 9.058-12.737 9.058zM185.329 237.377a7.502 7.502 0 00-7.502 7.502v12.79a7.502 7.502 0 0015.004 0v-12.79a7.501 7.501 0 00-7.502-7.502zM326.67 237.377a7.502 7.502 0 00-7.502 7.502v12.79a7.502 7.502 0 0015.004 0v-12.79a7.502 7.502 0 00-7.502-7.502zM282.368 251.992a7.502 7.502 0 00-10.586.711c-3.842 4.396-9.594 6.917-15.782 6.917-6.187 0-11.94-2.522-15.783-6.917a7.501 7.501 0 00-10.586-.71 7.5 7.5 0 00-.71 10.586c6.692 7.655 16.562 12.046 27.08 12.046 10.518-.001 20.388-4.391 27.08-12.047a7.504 7.504 0 00-.713-10.586z"/></svg>