<svg xmlns="http://www.w3.org/2000/svg" viewBox="0 0 512 512"><path d="M180.345 352.54a7.5 7.5 0 00-7.5 7.5v13.692a7.5 7.5 0 0015 0V360.04a7.5 7.5 0 00-7.5-7.5zM331.655 352.54a7.5 7.5 0 00-7.5 7.5v13.692a7.5 7.5 0 0015 0V360.04a7.5 7.5 0 00-7.5-7.5zM283.879 368.054a7.5 7.5 0 00-10.583.711c-4.215 4.821-10.519 7.586-17.296 7.586-6.777 0-13.081-2.765-17.295-7.587a7.5 7.5 0 00-11.294 9.872c7.063 8.081 17.484 12.715 28.589 12.715 11.105 0 21.526-4.634 28.589-12.714a7.5 7.5 0 00-.71-10.583z"/><path d="M483.949 260.654h-16.621c-3.97-26.047-16.715-49.988-36.354-68.005a116.333 116.333 0 00-27.181-18.619l61.675-134.331c.072-.159.176-.396.251-.573 4.429-10.524-.528-22.689-11.05-27.118-10.525-4.431-22.689.527-27.119 11.05l-58.996 140.14a117.18 117.18 0 00-5.63-.64 114.584 114.584 0 00-3.98-8.395l37.132-127.707a20.563 20.563 0 00-2.073-16.294A20.575 20.575 0 00381.327.651c-11.056-2.834-22.365 3.854-25.201 14.915l-26.349 102.766c-20.412-16.799-46.376-26.642-73.776-26.642-46.471 0-88.83 28.285-106.924 70.868-25.289 2.26-49.14 12.742-68.05 30.09-19.639 18.017-32.385 41.958-36.354 68.005H28.051a7.5 7.5 0 00-7.5 7.5v22.146c0 6.677.378 13.379 1.124 19.931a174.705 174.705 0 009.971 41.574c1.428 3.816 5.845 5.822 9.653 4.396a7.5 7.5 0 004.396-9.653 159.788 159.788 0 01-7.947-29.659h363.336a7.5 7.5 0 000-15H35.964c-.274-3.843-.413-26.235-.413-26.235h440.898s-.138 22.392-.413 26.235h-44.953a7.5 7.5 0 000 15h43.174c-11.149 67.174-63.38 119.158-129.001 131.254-.034.006-.068.007-.102.013a161.99 161.99 0 01-29.223 2.661H196.069c-7.011 0-14.061-.431-21.008-1.378l-.153-.019c-20.915-2.773-41.133-9.636-59.385-20.25-23.643-13.748-43.53-33.443-57.512-56.956a7.5 7.5 0 00-12.893 7.667c15.283 25.702 37.021 47.23 62.865 62.257 15.581 9.06 32.473 15.601 50.007 19.488V504.5a7.5 7.5 0 007.5 7.5h181.021a7.5 7.5 0 007.5-7.5v-42.832c71.823-15.862 127.751-75.691 136.315-151.445a176.817 176.817 0 001.123-19.923v-22.146a7.5 7.5 0 00-7.5-7.5zM441.376 28.875a5.713 5.713 0 017.474-3.045c2.9 1.221 4.266 4.573 3.051 7.458l-61.97 134.982c-.033-.011-.067-.021-.1-.033a115.576 115.576 0 00-6.304-1.947l57.849-137.415zm-70.72-9.584a5.713 5.713 0 016.945-4.11 5.67 5.67 0 013.494 2.621 5.68 5.68 0 01.613 4.338l-33.489 115.187a117.314 117.314 0 00-5.982-7.196l28.419-110.84zM256 106.689c35.787 0 68.781 19.268 86.833 49.375.055.092 2.401 4.178 3.424 6.194a117.02 117.02 0 00-18.589 2.518c-.75.163-1.498.33-2.243.507-14.793-24.158-40.866-38.929-69.425-38.929s-54.633 14.772-69.426 38.929a116.211 116.211 0 00-15.332-2.589 120.353 120.353 0 00-5.499-.437c17.068-33.633 52.073-55.568 90.257-55.568zm.001 54.331c-14.42 0-27.829 6.635-36.619 17.699a115.382 115.382 0 00-17.933-8.801c12.349-17.808 32.55-28.563 54.552-28.563 22.003 0 42.203 10.753 54.551 28.563-.249.096-.5.19-.748.288a117.388 117.388 0 00-14.528 6.955c-.893.506-1.777 1.027-2.656 1.558-8.79-11.064-22.198-17.699-36.619-17.699zm24.291 26.281l-.271.218c-8.706 6.955-16.377 15.221-22.736 24.367-.431.62-.865 1.237-1.284 1.867-.089-.133-.878-1.282-1.185-1.722a116.243 116.243 0 00-23.107-24.73 31.786 31.786 0 0124.292-11.281 31.781 31.781 0 0124.291 11.281zm-147.35 73.351c5.767-8.697 15.63-14.23 26.508-14.23s20.741 5.534 26.508 14.23h-53.016zm69.885 0c-7.061-17.468-24.143-29.23-43.377-29.23s-36.316 11.763-43.377 29.23H95.371c7.794-28.401 33.963-48.896 64.079-48.896 30.116 0 56.285 20.495 64.079 48.896h-20.702zm36.132 0c-8.137-36.852-41.211-63.896-79.51-63.896s-71.373 27.044-79.51 63.896H59.865c3.832-21.796 14.763-41.78 31.302-56.953 18.443-16.92 43.243-26.609 68.283-26.609 18.252 0 36.494 5.094 52.118 14.523 24.608 14.849 42.366 40.469 47.418 68.792l.044.247h-20.071zm87.084 0c5.767-8.697 15.63-14.23 26.508-14.23s20.741 5.534 26.508 14.23h-53.016zm69.885 0c-7.061-17.468-24.143-29.23-43.377-29.23s-36.316 11.763-43.377 29.23h-20.703c7.794-28.401 33.963-48.896 64.079-48.896 30.116 0 56.285 20.495 64.079 48.896h-20.701zm36.132 0c-8.137-36.852-41.211-63.896-79.51-63.896-37.281 0-69.607 25.629-78.804 60.983-.06-.334-.115-.67-.178-1.004a115.802 115.802 0 00-9.114-28.075c.126-.224.252-.448.38-.67 6.096-10.59 14.229-20.177 23.674-27.933l.067-.054c17.813-14.485 40.97-22.913 63.975-22.913 24.961 0 49.902 9.746 68.283 26.609 16.539 15.173 27.471 35.157 31.303 56.953H432.06zm-93.049 236.347H172.989v-32.697a177.059 177.059 0 0023.08 1.513h119.863c7.678 0 15.363-.507 22.976-1.501.034-.005.069-.008.103-.012v32.697z"/></svg>