<svg xmlns="http://www.w3.org/2000/svg" viewBox="0 0 512 512"><path d="M436.934 62.749c-7.5-7.5-17.471-11.63-28.077-11.63s-20.577 4.13-28.077 11.63c-7.5 7.5-11.629 17.471-11.629 28.077 0 10.605 4.129 20.577 11.629 28.076 7.5 7.5 17.471 11.629 28.077 11.629s20.577-4.129 28.077-11.629 11.629-17.471 11.629-28.076c.001-10.607-4.129-20.578-11.629-28.077zm-10.608 45.544c-9.633 9.632-25.306 9.632-34.939 0-9.632-9.632-9.632-25.306 0-34.938 4.667-4.667 10.87-7.236 17.469-7.236 6.599 0 12.802 2.569 17.469 7.236 9.634 9.634 9.634 25.306.001 34.938zM345.447 274.485c-18.276-18.276-48.013-18.276-66.289 0-18.276 18.276-18.276 48.013 0 66.289 9.138 9.139 21.141 13.707 33.145 13.707 12.003 0 24.007-4.568 33.145-13.707 18.275-18.276 18.275-48.013-.001-66.289zm-10.607 55.682c-12.427 12.426-32.647 12.427-45.074 0-12.426-12.427-12.427-32.646-.001-45.074 6.214-6.214 14.375-9.32 22.537-9.32s16.324 3.106 22.537 9.32c12.428 12.427 12.428 32.648.001 45.074zM228.709 250.608c-6.746-6.746-15.714-10.46-25.254-10.46-9.54 0-18.508 3.714-25.254 10.46-13.924 13.924-13.924 36.582 0 50.507 6.746 6.746 15.714 10.46 25.254 10.46 9.54 0 18.508-3.714 25.254-10.46 6.746-6.746 10.46-15.714 10.46-25.254.001-9.539-3.714-18.507-10.46-25.253zm-10.608 39.901a20.577 20.577 0 01-14.647 6.067 20.577 20.577 0 01-14.647-6.067c-8.076-8.076-8.076-21.216 0-29.292 3.912-3.912 9.114-6.067 14.647-6.067s10.734 2.154 14.647 6.067a20.577 20.577 0 016.067 14.647 20.575 20.575 0 01-6.067 14.645zM270.131 145.742c-17.398-17.398-45.708-17.398-63.107 0s-17.399 45.708 0 63.107c8.699 8.699 20.126 13.048 31.553 13.048s22.854-4.349 31.553-13.048c17.4-17.399 17.4-45.709.001-63.107zm-10.607 52.499c-11.549 11.549-30.342 11.549-41.891 0s-11.549-30.342 0-41.891c5.775-5.775 13.36-8.662 20.945-8.662 7.585 0 15.171 2.887 20.945 8.662 11.55 11.549 11.55 30.342.001 41.891zM306.814 103.655a7.5 7.5 0 00-10.607 0l-9.188 9.188a7.502 7.502 0 000 10.608c2.895 2.896 7.714 2.892 10.607-.001l9.188-9.188a7.5 7.5 0 000-10.607zM408.344 205.186a7.502 7.502 0 00-10.608 0l-9.188 9.188a7.5 7.5 0 000 10.607c2.898 2.898 7.708 2.9 10.608 0l9.188-9.188a7.499 7.499 0 000-10.607zM365.986 183.781c-.278-4.133-3.854-7.262-7.987-6.981-5.955.395-11.929-1.934-16.399-6.404-4.469-4.469-6.803-10.446-6.404-16.399a7.5 7.5 0 00-6.981-7.986c-4.136-.288-7.709 2.848-7.986 6.981-.69 10.271 3.233 20.481 10.763 28.012 7.313 7.313 17.651 11.462 28.012 10.763a7.499 7.499 0 006.982-7.986z"/><path d="M511.859 20.325C511.347 9.33 502.669.652 491.675.138c-33.612-1.575-81.238 10.336-141.56 35.389a7.5 7.5 0 00-4.049 9.804 7.5 7.5 0 009.804 4.05c58.264-24.199 103.721-35.72 135.105-34.258a6.172 6.172 0 015.902 5.901c5.217 111.645-153.468 361.892-179.044 401.439l-.225-.102c-50.127-22.623-98.179-51.638-137.231-90.738-36.248-36.248-63.762-80.5-85.729-126.568a659.683 659.683 0 01-5.08-10.91c24.886-16.107 132.87-84.759 237.03-132.025a7.5 7.5 0 003.73-9.93 7.5 7.5 0 00-9.93-3.73C216.375 95.662 108.734 163.897 82.17 181.063c-6.857-7.273-17.633-10.123-27.508-6.489l-37.934 13.959c-13.603 5.007-20.424 20.85-14.687 34.179 13.28 30.846 55.079 105.867 118.229 169.016 26.087 26.088 56.46 50.858 90.276 73.623a7.501 7.501 0 008.378-12.444c-33.016-22.227-62.639-46.38-88.045-71.786C69.337 319.581 28.706 246.713 15.82 216.782c-2.308-5.362.422-12.083 6.089-14.168l37.934-13.959c5.266-1.938 11.149.569 13.397 5.708 14.916 34.091 47.289 98.633 96.527 147.871 49.507 49.508 113.88 81.741 147.846 96.548 5.149 2.245 7.663 8.133 5.723 13.404l-13.949 37.907c-2.059 5.595-8.712 8.438-14.169 6.089-8.161-3.513-25.609-11.684-50.762-26.934a7.502 7.502 0 00-7.778 12.828c19.216 11.649 37.899 21.552 52.608 27.884 13.342 5.744 29.179-1.101 34.179-14.687l13.949-37.907c3.635-9.88.784-20.655-6.493-27.511 12.455-19.263 51.884-81.317 90.384-153.283 62.567-116.96 93.034-203.173 90.554-256.247z"/></svg>