<svg height="512" viewBox="0 0 128 128" width="512" xmlns="http://www.w3.org/2000/svg"><linearGradient id="a" gradientUnits="userSpaceOnUse" x1="103.457" x2="24.543" y1="107.956" y2="29.042"><stop offset="0" stop-color="#f35d2e"/><stop offset="1" stop-color="#ffde3e"/></linearGradient><path d="M92.951 22.455h-6.274v-5.49a1.75 1.75 0 00-1.75-1.75h-6.648l.783-8.752a1.749 1.749 0 00-1.743-1.906h-7a1.75 1.75 0 00-1.743 1.593l-.811 9.065H43.073a1.75 1.75 0 00-1.75 1.75v5.49h-6.274a9.487 9.487 0 00-9.476 9.476V36.2a1.75 1.75 0 001.75 1.75H31.5l1.14 12.729h-1.85a1.751 1.751 0 00-1.743 1.906l.832 9.29a1.75 1.75 0 103.486-.312L32.7 54.18h62.6l-1.008 11.24a1.751 1.751 0 001.587 1.9c.053 0 .1.007.158.007a1.75 1.75 0 001.741-1.594l1.178-13.147a1.751 1.751 0 00-1.743-1.906h-1.85L96.5 37.951h4.174a1.75 1.75 0 001.75-1.75v-4.27a9.487 9.487 0 00-9.473-9.476zM71.92 8.057h3.485l-.64 7.158h-3.486zm-27.1 10.658h38.357v3.74H44.823zM91.849 50.68h-55.7l-1.14-12.729h57.98zm7.078-16.229H29.073v-2.52a5.982 5.982 0 015.976-5.976h57.9a5.982 5.982 0 015.976 5.976zM32.791 76.575a1.75 1.75 0 01-1.741-1.594l-.4-4.481a1.75 1.75 0 013.487-.312l.4 4.48a1.751 1.751 0 01-1.587 1.9c-.05.004-.107.007-.159.007zm62.717-5.105a1.764 1.764 0 00-1.9 1.587L92.029 90.68H35.971l-.7-7.805a1.75 1.75 0 10-3.486.313l.842 9.4a1.751 1.751 0 001.743 1.592h2.163l2.48 27.67a1.75 1.75 0 001.743 1.593h46.488a1.75 1.75 0 001.743-1.593l2.48-27.67h2.163a1.751 1.751 0 001.743-1.594L97.1 73.37a1.751 1.751 0 00-1.592-1.9zm-9.864 48.473H42.356L40.048 94.18h47.9zM53.137 83.212c.014.014.024.029.038.043a9.89 9.89 0 007.147 2.756A17.325 17.325 0 0072.21 80.64a18.113 18.113 0 005.228-9.786 10.418 10.418 0 00-2.523-9.147l-.052-.059c-.018-.019-.024-.029-.038-.043-4.528-4.53-13.066-3.354-19.035 2.614a18.122 18.122 0 00-5.228 9.787 10.417 10.417 0 002.523 9.146c.015.021.034.041.052.06zm20.844-12.9a14.61 14.61 0 01-4.246 7.858c-4.24 4.239-9.927 5.559-13.271 3.274a12.678 12.678 0 018.048-7.344 15.9 15.9 0 009.313-7.44 8.516 8.516 0 01.156 3.648zm-19.962 4.24a14.607 14.607 0 014.246-7.858 13.91 13.91 0 019.383-4.394 6.816 6.816 0 013.89 1.113 12.677 12.677 0 01-8.05 7.34 15.908 15.908 0 00-9.313 7.44 8.512 8.512 0 01-.156-3.641zM47 113.685a1.75 1.75 0 011.75-1.75h13.061a1.75 1.75 0 110 3.5H48.746a1.75 1.75 0 01-1.746-1.75z" fill="url(#a)"/></svg>