<svg height="512" viewBox="0 0 128 128" width="512" xmlns="http://www.w3.org/2000/svg"><linearGradient id="a" gradientUnits="userSpaceOnUse" x1="114.234" x2="13.766" y1="124.024" y2="23.557"><stop offset="0" stop-color="#f35d2e"/><stop offset="1" stop-color="#ffde3e"/></linearGradient><path d="M41.373 121.7a1.75 1.75 0 01-1.75 1.75h-4.5a1.75 1.75 0 010-3.5h4.5a1.751 1.751 0 011.75 1.75zm82.07-85.312V48.5a1.749 1.749 0 01-1.75 1.75h-1.687v5.528a1.75 1.75 0 11-3.5 0v-5.524H78.3a4.1 4.1 0 00-4.1 4.1v16.5h42.305v-7.395a1.75 1.75 0 013.5 0v51.228a8.876 8.876 0 01-8.966 8.762h-62.76a1.75 1.75 0 010-3.5h62.761a5.373 5.373 0 005.466-5.262V99.352H11.494v15.335a5.373 5.373 0 005.466 5.262h9.926a1.75 1.75 0 110 3.5H16.96a8.875 8.875 0 01-8.966-8.762V50.254H6.307a1.749 1.749 0 01-1.75-1.75V36.387a8.765 8.765 0 018.755-8.755h39.847a10.516 10.516 0 011.916-15.781c-.964-1.547-3.253-3.968-8.1-3.79a1.75 1.75 0 01-.133-3.5c6.35-.25 9.922 3.11 11.458 5.839a10.38 10.38 0 017.957 1.067c4.038-4.42 9.665-6.744 16.764-6.9a1.714 1.714 0 011.75 1.382c.089.419 2.138 10.365-3.817 17.735a17.453 17.453 0 01-4.543 3.952h38.277a8.765 8.765 0 018.755 8.751zM68.962 13.7a10.488 10.488 0 01.6 13 15.935 15.935 0 008.671-5.221c3.705-4.584 3.607-10.612 3.326-13.344-5.296.4-9.515 2.276-12.597 5.565zm-7.979 13.932a7.039 7.039 0 004.676-12.308 1.7 1.7 0 01-.189-.118 1.809 1.809 0 01-.26-.249 7.044 7.044 0 10-4.227 12.675zM11.494 50.254v20.6h22.333V54.35a4.1 4.1 0 00-4.1-4.1zm105.012 24.1H74.114a7.586 7.586 0 01-15.018 0h-9.178v10.6a7.605 7.605 0 01-7.6 7.6h-.9a7.6 7.6 0 01-7.595-7.6v-10.6H11.494v21.5h105.012zm-58.237-3.5a4.054 4.054 0 00-3.356-1.782h-.9a4.092 4.092 0 00-3.374 1.782zm20.031-24.1h41.646V36.387a5.26 5.26 0 00-5.255-5.255H13.312a5.26 5.26 0 00-5.255 5.255v10.367H29.73a7.605 7.605 0 017.6 7.6v30.602a4.1 4.1 0 004.095 4.1h.9a4.1 4.1 0 004.1-4.1v-11.79c0-.189.015-.374.028-.559v-.02a7.6 7.6 0 017.567-7.017h.9a7.6 7.6 0 017.56 7.03c.014.186.028.372.028.562a4.1 4.1 0 108.192.1V54.35a7.6 7.6 0 017.6-7.596zM23.658 36.639L22.2 37.993a1.75 1.75 0 002.381 2.566l1.458-1.359a1.75 1.75 0 00-2.381-2.565zm28.722 8.648a1.75 1.75 0 00-2.474 2.475l1.98 1.98a1.75 1.75 0 102.474-2.475zm27.485-9.454a1.75 1.75 0 00-2.343.8l-1.022 2.08a1.75 1.75 0 103.139 1.548l1.027-2.084a1.75 1.75 0 00-.801-2.344zm27.177 1.943l-1.876-.417a1.75 1.75 0 00-.76 3.417l1.876.417a1.788 1.788 0 00.382.042 1.75 1.75 0 00.378-3.459z" fill="url(#a)"/></svg>