<svg xmlns="http://www.w3.org/2000/svg" width="512" height="512" viewBox="0 0 128 128"><defs><linearGradient id="a" x1="99.128" y1="89.04" x2="23.968" y2="13.88" gradientUnits="userSpaceOnUse"><stop offset="0" stop-color="#f35d2e"/><stop offset="1" stop-color="#ffde3e"/></linearGradient></defs><path d="M115.341 30.994l-4.552 9.1a6.014 6.014 0 01-5.678 3.333l-4.294 8.939a16.8 16.8 0 00-1.526 6.978V75.6a5.136 5.136 0 01-5.129 5.13H93.1a1.631 1.631 0 00-1.63 1.628V93.4a6.061 6.061 0 01-11.992 1.251l-13.913 27.825a1.75 1.75 0 01-3.13 0l-10.185-20.37v5.7a5.974 5.974 0 11-11.948 0V84.948a28.679 28.679 0 00-3.014-12.765l-1.7-3.4a1.75 1.75 0 013.131-1.565l1.7 3.4a32.2 32.2 0 013.381 14.33v22.859a2.474 2.474 0 104.948 0V94.693a1.75 1.75 0 013.315-.782L64 117.78l15.531-31.062a1.75 1.75 0 013.316.782v5.9a2.561 2.561 0 105.122 0V82.357a5.135 5.135 0 015.13-5.128h1.063a1.631 1.631 0 001.629-1.63v-16.25a20.364 20.364 0 011.859-8.47l4.151-8.641a6.05 6.05 0 01-.6-.518 52.647 52.647 0 00-74.409 0 5.906 5.906 0 01-.584.48l2.933 5.866a1.75 1.75 0 11-3.131 1.565l-3.104-6.211c-.089 0-.174.025-.264.025a6.077 6.077 0 01-5.431-3.345L12.659 31A6.027 6.027 0 0114 23.862a74.453 74.453 0 0187.194-9.36 1.75 1.75 0 01-1.752 3.03 70.952 70.952 0 00-83.089 8.921 2.516 2.516 0 00-.558 2.976l4.552 9.105a2.527 2.527 0 001.876 1.377 2.394 2.394 0 002.1-.667 56.147 56.147 0 0179.356 0 2.4 2.4 0 002.1.667 2.526 2.526 0 001.877-1.378l4.552-9.1a2.516 2.516 0 00-.558-2.976 71.409 71.409 0 00-5.088-4.207 1.75 1.75 0 112.1-2.8A75.197 75.197 0 01114 23.864a6.027 6.027 0 011.341 7.13zM33.019 55.817a1.75 1.75 0 10-3.131 1.565l2.012 4.027a1.75 1.75 0 103.131-1.565zM64 73.3a8.292 8.292 0 11-8.292 8.291A8.3 8.3 0 0164 73.3zm-4.792 8.291A4.792 4.792 0 1064 76.8a4.8 4.8 0 00-4.792 4.793zm-3.8-33.358a8.292 8.292 0 11-8.292-8.291 8.3 8.3 0 018.292 8.293zm-3.5 0a4.792 4.792 0 10-4.792 4.791 4.8 4.8 0 004.792-4.789zm28.976.674a8.292 8.292 0 11-8.292 8.293 8.3 8.3 0 018.292-8.291zm0 3.5a4.792 4.792 0 104.791 4.793 4.8 4.8 0 00-4.791-4.791zm-14.19-3.591a1.75 1.75 0 001.9-2.939l-2.914-1.885a1.75 1.75 0 00-1.9 2.939zm17.987-7.164a1.756 1.756 0 00.7-.147l2.745-1.2a1.75 1.75 0 00-1.4-3.207l-2.745 1.2a1.751 1.751 0 00.7 3.354zm-32.473 20.96l-2.32 3.429A1.75 1.75 0 0052.787 68l2.32-3.428a1.75 1.75 0 00-2.9-1.962zm11.409 33.916l-1.458 1.2a1.75 1.75 0 102.224 2.7l1.458-1.2a1.75 1.75 0 10-2.224-2.7zm15.2-25.874a1.75 1.75 0 00-1.912 2.931l2.111 1.377a1.75 1.75 0 101.912-2.931zm11.156-50.841a1.749 1.749 0 00.791 2.345 54.4 54.4 0 0112.168 8.066 1.75 1.75 0 002.336-2.607 57.881 57.881 0 00-12.95-8.6 1.751 1.751 0 00-2.345.796z" fill="url(#a)"/></svg>