<svg height="512pt" viewBox="-31 0 511 512" width="512pt" xmlns="http://www.w3.org/2000/svg"><path d="M441.258 212.398c-11.7-43.5-43.801-75-87.903-86.097-41.097-10.5-84.597-.602-108.597 24.597-5.102 5.403-12.301 8.102-19.5 8.102-7.203 0-14.403-2.7-19.504-8.102-25.2-26.398-65.7-36.898-106.5-27-43.5 10.5-76.797 42.301-89.098 84.903C-.644 246-2.445 291.898 5.055 333.898 22.156 432.301 82.156 512 144.258 512c12.3 0 24-3 35.097-9 14.403-7.8 30-11.7 45.903-11.7 15.898 0 31.5 3.9 45.898 11.7 11.102 6 22.801 9 35.102 9 62.097 0 122.097-79.7 139.199-178.102 7.2-40.5 5.7-84.898-4.2-121.5zm0 0" fill="#ff4949"/><path d="M445.457 333.898C428.359 432.301 368.359 512 306.257 512c-12.3 0-24-3-35.097-9-14.402-7.8-30-11.7-45.902-11.7V159c7.199 0 14.398-2.7 19.5-8.102 24-25.199 67.5-35.097 108.601-24.597 44.098 11.097 76.2 42.597 87.899 86.097 9.898 36.602 11.398 81 4.199 121.5zm0 0" fill="#ff193d"/><path d="M225.258 51.3c-18.301-30.6-51.602-51.3-90-51.3h-60c-8.403 0-15 6.598-15 15 0 57.898 47.097 105 105 105h60c8.398 0 15-6.602 15-15 0-19.5-5.403-38.102-15-53.7zm0 0" fill="#93bf00"/><path d="M360.258 45c0 8.398-6.602 15-15 15-57.903 0-105 47.102-105 105v9.3c0 8.4-6.602 15-15 15-8.403 0-15-6.6-15-15V165c0-22.2 5.398-43.2 15-61.8 22.5-43.5 67.8-73.2 120-73.2 8.398 0 15 6.598 15 15zm0 0" fill="#b35f49"/><path d="M360.258 45c0 8.398-6.602 15-15 15-57.903 0-105 47.102-105 105v9.3c0 8.4-6.602 15-15 15v-86.1c22.5-43.5 67.8-73.2 120-73.2 8.398 0 15 6.598 15 15zm0 0" fill="#99503d"/></svg>