<svg xmlns="http://www.w3.org/2000/svg" width="512" height="512" viewBox="0 0 128 128"><defs><linearGradient id="a" x1="99.061" y1="120.921" x2="18.366" y2="40.225" gradientUnits="userSpaceOnUse"><stop offset="0" stop-color="#f35d2e"/><stop offset="1" stop-color="#ffde3e"/></linearGradient></defs><path d="M89.506 38.134a1.75 1.75 0 112.324-2.617A41.97 41.97 0 01103.914 54a1.75 1.75 0 01-3.332 1.074 38.452 38.452 0 00-11.076-16.94zm-6.782-4.824a1.75 1.75 0 001.707-3.055 41.743 41.743 0 00-6.168-2.817 1.75 1.75 0 10-1.19 3.291 38.353 38.353 0 015.651 2.581zm40.719 29.039v11.3a1.749 1.749 0 01-1.75 1.75H6.307a1.749 1.749 0 01-1.75-1.75v-11.3a1.749 1.749 0 011.75-1.75h6.337A51.816 51.816 0 0122.1 37.354a1.75 1.75 0 012.824 2.069A48.287 48.287 0 0016.18 60.6h95.659a48.409 48.409 0 00-82.1-26.792 1.75 1.75 0 01-2.477-2.473 51.515 51.515 0 0127.206-14.362 9.871 9.871 0 1119.065 0A51.81 51.81 0 01115.371 60.6h6.322a1.749 1.749 0 011.75 1.749zM64 16.093a52.442 52.442 0 016.029.36 6.371 6.371 0 10-12.058 0 52.646 52.646 0 016.029-.36zM119.943 64.1H8.057v7.8h111.886zM94.1 101.989h-4.5a1.75 1.75 0 100 3.5h4.5a1.75 1.75 0 100-3.5zM111.5 91H89.319a7.24 7.24 0 00-6.2-10.985H41.928a15.757 15.757 0 00-13.652 7.922L9.49 120.825a1.75 1.75 0 001.52 2.618h28.753a1.747 1.747 0 001.513-.872l9.907-17.082h30.184a1.75 1.75 0 000-3.5H50.175a1.75 1.75 0 00-1.514.872l-9.906 17.082h-24.73l17.29-30.265a12.249 12.249 0 0110.613-6.159h41.193a3.743 3.743 0 010 7.485H60.15a1.75 1.75 0 100 3.5h51.35a3.743 3.743 0 110 7.485h-8.736a1.75 1.75 0 000 3.5h8.736a7.243 7.243 0 100-14.489z" fill="url(#a)"/></svg>