<?xml version="1.0"?>
<svg xmlns="http://www.w3.org/2000/svg" xmlns:xlink="http://www.w3.org/1999/xlink" width="512" height="512" viewBox="0 0 128 128"><defs><linearGradient id="a" x1="105.547" y1="112.932" x2="22.148" y2="29.533" gradientUnits="userSpaceOnUse"><stop offset="0" stop-color="#f35d2e"/><stop offset="1" stop-color="#ffde3e"/></linearGradient></defs><path d="M105.542,33.29h-67.2a1.75,1.75,0,0,0,0,3.5h65.455v7.189H24.208V36.79h6.451a1.75,1.75,0,0,0,0-3.5h-8.2a1.75,1.75,0,0,0-1.75,1.75V45.729a1.75,1.75,0,0,0,1.75,1.75h3.35A38.851,38.851,0,0,0,41.7,72.115L29.886,116.427A5.586,5.586,0,0,0,40.681,119.3l5.594-20.989h12.14v19.551a5.585,5.585,0,1,0,11.17,0V98.315h12.14L87.32,119.3a5.585,5.585,0,0,0,10.794-2.877l-2.108-7.909a1.75,1.75,0,0,0-3.383.9l2.108,7.909A2.085,2.085,0,1,1,90.7,118.4L85.348,98.315h.806a1.75,1.75,0,0,0,0-3.5H84.415L79.4,76.007a39.119,39.119,0,0,0,3.8-1.92l3.914,14.681a1.752,1.752,0,0,0,1.691,1.3,1.729,1.729,0,0,0,.452-.06,1.751,1.751,0,0,0,1.24-2.141L86.3,72.115a38.851,38.851,0,0,0,15.89-24.636h3.35a1.75,1.75,0,0,0,1.75-1.75V35.04A1.75,1.75,0,0,0,105.542,33.29ZM37.3,118.4a2.085,2.085,0,1,1-4.03-1.074L44.8,74.086a39.032,39.032,0,0,0,3.8,1.921L43.586,94.815h-1.74a1.75,1.75,0,0,0,0,3.5h.807Zm9.909-23.587,4.678-17.547a38.478,38.478,0,0,0,6.529,1.547v16ZM64,79.228c.7,0,1.393-.025,2.085-.062V94.815h-4.17V79.166C62.607,79.2,63.3,79.228,64,79.228Zm2.085,38.638a2.085,2.085,0,1,1-4.17,0V98.315h4.17ZM80.792,94.815H69.585v-16a38.383,38.383,0,0,0,6.529-1.547ZM64,75.728A35.519,35.519,0,0,1,29.376,47.479H98.624A35.519,35.519,0,0,1,64,75.728Zm-.239-7.761a1.748,1.748,0,0,1,1.653-1.842,25.506,25.506,0,0,0,15.41-6.208,1.75,1.75,0,1,1,2.285,2.651A28.972,28.972,0,0,1,65.6,69.62q-.048,0-.1,0A1.749,1.749,0,0,1,63.761,67.967ZM85.335,54.859a25.686,25.686,0,0,0,1.9-3.285A1.75,1.75,0,1,1,90.383,53.1a29.349,29.349,0,0,1-2.154,3.731,1.75,1.75,0,1,1-2.894-1.967Zm7.394,41.365,1.157,4.342a1.75,1.75,0,1,1-3.383.9l-1.157-4.342a1.75,1.75,0,1,1,3.383-.9ZM59.663,14.675a6.949,6.949,0,0,1,.486-5.433l2-3.758a1.75,1.75,0,0,1,3.09,1.645l-2,3.758a3.5,3.5,0,0,0,1.537,4.786,7.016,7.016,0,0,1,3.18,9.362l-2.464,5.021a1.75,1.75,0,1,1-3.142-1.542l2.463-5.021a3.509,3.509,0,0,0-1.589-4.683A6.948,6.948,0,0,1,59.663,14.675Zm15.845,0a6.951,6.951,0,0,1,.485-5.434l2-3.758a1.75,1.75,0,0,1,3.09,1.645l-2,3.758a3.5,3.5,0,0,0,1.538,4.786,7.019,7.019,0,0,1,3.18,9.361l-2.464,5.022a1.75,1.75,0,0,1-3.143-1.542l2.464-5.021a3.512,3.512,0,0,0-1.591-4.684A6.948,6.948,0,0,1,75.508,14.676Zm-31.689,0a6.949,6.949,0,0,1,.486-5.435l2-3.758A1.75,1.75,0,0,1,49.4,7.129l-2,3.758a3.5,3.5,0,0,0,1.537,4.786,7.017,7.017,0,0,1,3.18,9.361l-2.464,5.022a1.75,1.75,0,0,1-3.142-1.542l2.464-5.021a3.511,3.511,0,0,0-1.591-4.683A6.952,6.952,0,0,1,43.819,14.677Z" fill="url(#a)"/></svg>
