<svg xmlns="http://www.w3.org/2000/svg" xmlns:xlink="http://www.w3.org/1999/xlink" width="500" height="500" viewBox="0 0 375 375" version="1.2"><defs><symbol overflow="visible" id="a"><path d="M4.922-.39c.039 0 .062.027.062.078v.234c0 .055-.023.078-.062.078H.328C.273 0 .25-.023.25-.078v-.234c0-.051.023-.079.078-.079 1.07 0 1.656-.46 1.75-1.39.031-.27.055-.719.078-1.344.031-.625.117-1.969.266-4.031.144-2.063.219-3.735.219-5.016v-.36c0-.257-.153-.476-.454-.655-.292-.176-.511-.266-.656-.266-.136 0-.203-.024-.203-.078v-.235c0-.05.024-.078.078-.078H4.25a.478.478 0 01.313.219l4.593 10.25c.031.055.055.094.078.125.02.031.067.047.141.047.082 0 .145-.055.188-.172l4.562-10.078c.133-.258.258-.39.375-.39h2.844c.05 0 .078.027.078.077v.235c0 .054-.016.078-.047.078-.2 0-.438.07-.719.203-.437.188-.656.48-.656.875l.578 10.844c.02.343.195.62.531.828.344.21.79.312 1.344.312.05 0 .078.028.078.079v.234c0 .055-.027.078-.078.078h-5.578c-.055 0-.078-.023-.078-.078v-.234c0-.051.023-.079.078-.079 1.164 0 1.75-.285 1.75-.859l-.516-9.375c-.011-.063-.03-.094-.062-.094-.024 0-.043.028-.063.078L9.11-.062C9.08-.02 9 0 8.875 0s-.2-.023-.219-.078L3.844-10.656c-.031-.094-.07-.14-.11-.14-.03 0-.046.073-.046.218 0 .293-.086 1.71-.25 4.25-.157 2.543-.235 4.125-.235 4.75v.406c.082.375.457.621 1.125.734.188.032.383.047.594.047zm0 0"/></symbol><symbol overflow="visible" id="b"><path d="M2.469-12.281c0-.781-.45-1.172-1.344-1.172-.148 0-.219-.024-.219-.078v-.235c0-.05.024-.078.078-.078h4.922c.051 0 .078.028.078.078v.235c0 .054-.148.078-.437.078-.293 0-.559.094-.797.281-.242.18-.36.555-.36 1.125v10.469c0 .793.454 1.187 1.36 1.187.133 0 .203.028.203.079v.234c0 .055-.027.078-.078.078H.969C.914 0 .89-.023.89-.078v-.234c0-.051.14-.079.421-.079.29 0 .555-.086.797-.265.239-.188.36-.567.36-1.14zm0 0"/></symbol><symbol overflow="visible" id="c"><path d="M3.922-.313c0-.05.023-.078.078-.078h.281c.645 0 1.16-.132 1.547-.406.383-.281.578-.601.578-.969V-12.64c0-.132-.027-.207-.078-.218a1.047 1.047 0 00-.203-.047H2.359c-.617.125-1.015.59-1.203 1.39a14.25 14.25 0 00-.187.844c-.024.117-.059.172-.11.172H.688c-.043 0-.063-.008-.063-.031v-.328l.36-3.063c.038-.207.109-.312.203-.312.093 0 .19.07.296.203.102.125.301.187.594.187h10.594c.281 0 .445-.031.5-.094.062-.07.117-.14.172-.203a.247.247 0 01.203-.093c.082 0 .133.039.156.109.02.063.035.133.047.203l.375 3.063v.328c0 .023-.023.031-.063.031h-.171c-.055 0-.09-.047-.11-.14-.105-.657-.258-1.176-.453-1.563a1.296 1.296 0 00-.937-.703H8.609c-.074.011-.14.027-.203.047-.054.011-.078.086-.078.218v10.875c0 .368.192.688.578.97.395.273.91.405 1.547.405h.281c.063 0 .094.028.094.079v.234c0 .055-.031.078-.094.078H4c-.055 0-.078-.023-.078-.078zm0 0"/></symbol><symbol overflow="visible" id="e"><path d="M13.203-.375c-.031.055-.11.063-.234.031a1.9 1.9 0 00-.453-.047c-.168 0-.407.04-.72.11-.312.074-.804.183-1.468.328A8.719 8.719 0 018.5.266c-1.242 0-2.45-.29-3.625-.875a7.094 7.094 0 01-2.797-2.5c-.7-1.07-1.047-2.317-1.047-3.735 0-1.426.348-2.718 1.047-3.875 1.02-1.687 2.563-2.785 4.625-3.297a8.27 8.27 0 011.953-.234c.895 0 1.961.148 3.203.438.364.093.676.195.938.296.258.094.422.141.484.141l.281-.078h.313c.07 0 .11.058.11.172v3.047c0 .062-.06.093-.172.093-.118 0-.184-.007-.204-.03a.575.575 0 01-.062-.11 1.243 1.243 0 01-.063-.125l-.062-.14a.514.514 0 01-.047-.095c-.98-1.968-2.469-2.953-4.469-2.953-1.804 0-3.215.574-4.234 1.719-1.012 1.148-1.516 2.668-1.516 4.563 0 1.886.555 3.507 1.672 4.859C5.953-1.098 7.473-.422 9.391-.422a4.82 4.82 0 002.859-.922 6.836 6.836 0 002.031-2.297c.008-.039.047-.062.11-.062h.125c.07 0 .109.043.109.125a.454.454 0 01-.063.219zm0 0"/></symbol><symbol overflow="visible" id="f"><path d="M5.219-.078c0 .055-.028.078-.078.078H.125C.07 0 .047-.023.047-.078v-.234c0-.051.039-.079.125-.079C1.066-.43 1.676-.91 2-1.828l4-11.594c.008-.008.016-.023.016-.047l-.11-.328c0-.031.008-.047.032-.047h1.968a.09.09 0 00.047.031c.031 0 .05.016.063.047l4.156 11.657c.082.18.148.34.203.484.063.148.129.277.203.39.156.274.414.477.781.61.301.156.57.234.813.234.05 0 .078.032.078.094v.219c0 .055-.027.078-.078.078h-6c-.055 0-.078-.023-.078-.078v-.234c0-.051.117-.083.36-.094.237-.02.437-.035.593-.047.914-.094 1.375-.399 1.375-.922a.44.44 0 00-.031-.14L8.92-5.689a1.017 1.017 0 01-.046-.093c-.074-.227-.21-.344-.406-.344H4.984c-.199 0-.355.11-.468.328-.024.055-.032.078-.032.078L3.016-1.406v.093c0 .168.086.32.265.454.395.312.93.468 1.61.468h.25c.05 0 .078.028.078.079zm2.906-7.125c.125 0 .188-.05.188-.156 0-.051-.016-.11-.047-.172l-1.47-4.032c-.062-.175-.109-.265-.14-.265-.031 0-.086.094-.156.281L5.125-7.53a.63.63 0 00-.031.218c0 .075.047.11.14.11zm0 0"/></symbol><symbol overflow="visible" id="g"><path d="M.672 0C.617 0 .594-.023.594-.078v-.234c0-.051.031-.079.094-.079h.218c.364 0 .614-.03.75-.093.477-.239.719-.891.719-1.954V-12.64c0-.437-.43-.695-1.281-.78a4.799 4.799 0 00-.39-.032c-.075 0-.11-.024-.11-.078v-.235c0-.05.023-.078.078-.078h3.594l9.312 10.297c.031.031.05.059.063.078.02.012.039.016.062.016.031 0 .047-.024.047-.078v-6.766c0-1.3-.11-2.148-.328-2.547-.211-.406-.64-.61-1.297-.61h-.5c-.055 0-.078-.023-.078-.077v-.235c0-.05.023-.078.078-.078h5.11c.05 0 .078.028.078.078v.235c0 .054-.102.078-.297.078-.188 0-.508.117-.953.344-.438.218-.657.492-.657.812V-.28c0 .148-.023.25-.062.312-.043.063-.137.094-.281.094-.149 0-.258-.031-.329-.094a2.495 2.495 0 01-.25-.25L3.86-11.453c-.062-.063-.12-.094-.171-.094-.032 0-.047.031-.047.094v9.797c0 .605.468 1 1.406 1.187.258.055.457.078.594.078.144 0 .218.028.218.079v.234c0 .055-.027.078-.078.078zm0 0"/></symbol><symbol overflow="visible" id="h"><path d="M.063-.078V-.36c0-.051.023-.079.078-.079h.218c.282-.019.563-.03.844-.03.29 0 .555-.032.797-.094.531-.165.797-.563.797-1.188v-10.344c0-.644-.383-1.054-1.14-1.234a7.55 7.55 0 00-.673-.125H.781c-.054 0-.078-.024-.078-.078v-.235c0-.05.024-.078.078-.078h9.344c.113 0 .195.024.25.063.05.043.086.136.11.281l.171 2.844c0 .062-.054.094-.156.094-.094 0-.164-.024-.203-.079-.043-.062-.094-.3-.156-.718-.063-.414-.18-.758-.344-1.032-.168-.27-.453-.441-.86-.515H4.845c-.086 0-.125.043-.125.125v5.078c0 .062.031.094.093.094h3.391c.883 0 1.328-.508 1.328-1.532 0-.05.024-.078.078-.078h.235c.05 0 .078.028.078.078v4.204c0 .054-.027.078-.078.078h-.235c-.054 0-.078-.024-.078-.079 0-.968-.281-1.53-.844-1.687a2.813 2.813 0 00-.515-.047h-3.36c-.062 0-.093.031-.093.094v4.781c0 .492.222.766.672.828.132.024.27.031.406.031h3.281c.664 0 1.188-.296 1.563-.89a3.42 3.42 0 00.5-1.469c.02-.176.113-.265.28-.265.083 0 .126.042.126.124L11.219-.14c-.031.094-.078.141-.14.141H.14C.086 0 .063-.023.063-.078zm0 0"/></symbol><symbol overflow="visible" id="i"><path d="M-5.703-14.219l.547-1.234L4.89-10.97l-.485 1.094-8.015-3.578 6.515 6.937L2.453-5.5l-9.422-.344L1.016-2.28.53-1.187-9.516-5.673l.61-1.36 10.375.438zm0 0"/></symbol><symbol overflow="visible" id="j"><path d="M.438-.781l-.922-.531.53-.922-7.702-4.391-.532.922-.921-.531 1.656-2.891.922.531-.532.938 7.704 4.39.53-.937.923.531zm0 0"/></symbol><symbol overflow="visible" id="k"><path d="M2.078-3.063l-8.281-5.609-1.953 2.875-.828-.562 4.562-6.75.828.562-1.937 2.875 8.281 5.61zm0 0"/></symbol><symbol overflow="visible" id="l"><path d="M-7.297-8.344l2.453-2.719c.668-.738 1.422-1.117 2.266-1.14.836-.031 1.648.308 2.437 1.015.782.711 1.188 1.497 1.22 2.36.038.855-.278 1.664-.954 2.422l-1.578 1.734 3.125 2.813-.797.89zM-.64-7.063c.493-.53.707-1.066.657-1.609-.051-.55-.368-1.094-.954-1.625-.57-.52-1.132-.781-1.687-.781-.563 0-1.086.265-1.578.797L-5.75-8.562l3.563 3.218zm0 0"/></symbol><symbol overflow="visible" id="m"><path d="M4.344-3.547c-.68.617-1.446.98-2.297 1.094-.856.117-1.727-.02-2.61-.406C-1.457-3.242-2.27-3.848-3-4.672c-.738-.82-1.25-1.691-1.531-2.61-.282-.913-.317-1.796-.11-2.64.2-.844.637-1.57 1.313-2.187.687-.602 1.465-.961 2.328-1.079.855-.113 1.723.024 2.61.407.882.375 1.695.976 2.437 1.797.738.824 1.25 1.699 1.531 2.625.281.918.317 1.796.11 2.64a4.18 4.18 0 01-1.344 2.172zm-.75-.844c.5-.437.816-.976.953-1.625.133-.656.078-1.343-.172-2.062-.242-.719-.656-1.41-1.25-2.078-.605-.664-1.258-1.164-1.953-1.5-.7-.332-1.375-.461-2.031-.39a3.006 3.006 0 00-1.735.75c-.488.448-.8.995-.937 1.64-.133.648-.078 1.34.172 2.078.242.73.664 1.43 1.265 2.094C-1.5-4.816-.852-4.32-.156-4c.695.313 1.375.438 2.031.375a2.888 2.888 0 001.719-.766zm0 0"/></symbol><symbol overflow="visible" id="n"><path d="M4.531-2.906c-.761.543-1.547.824-2.36.844-.804.011-1.6-.223-2.39-.704-.8-.488-1.547-1.222-2.234-2.203-.695-.968-1.156-1.906-1.375-2.812-.219-.914-.192-1.75.078-2.5.262-.75.75-1.38 1.469-1.89.742-.532 1.496-.821 2.265-.876.758-.05 1.5.117 2.22.5l-.47 1.016c-.648-.313-1.234-.442-1.765-.39-.531.042-1.067.257-1.61.64-.77.554-1.14 1.324-1.109 2.312.031.992.469 2.074 1.313 3.25.554.782 1.132 1.387 1.734 1.813.613.418 1.219.64 1.812.672A2.503 2.503 0 003.75-3.72c.625-.445 1.008-.93 1.156-1.453.145-.52.16-1.176.047-1.969l1.156-.093c.176.918.133 1.742-.125 2.468-.261.73-.746 1.352-1.453 1.86zm0 0"/></symbol><symbol overflow="visible" id="o"><path d="M6.438-3.688L.53-6.39.203-4.64l1.953 3.407-1.047.593-5.484-9.546 1.047-.594 2.781 4.828 1.235-7.14 1.171-.673L.734-7.484 7.61-4.375zm0 0"/></symbol><symbol overflow="visible" id="p"><path d="M1.172-.531l-4.578-10 5.594-2.563.421.922-4.5 2.063 1.594 3.5L3.22-8.234l.422.89L.125-5.719l1.719 3.782 4.531-2.094.422.906zm0 0"/></symbol><symbol overflow="visible" id="q"><path d="M3.5-1.234L.172-10.672-3.11-9.516l-.329-.937 7.688-2.703.328.937-3.281 1.156 3.328 9.438zm0 0"/></symbol><symbol overflow="visible" id="r"><path d="M1.25-.266L-1-11.03l5.86-1.219.202 1-4.671.969.796 3.75 3.47-.719.187.969-3.469.718L2.438-.516zm0 0"/></symbol><symbol overflow="visible" id="s"><path d="M7.406-.86l-3.343-4.5-2.157.25L2.47-.28l-1.203.14L0-11.062l3.656-.438c.656-.07 1.25-.008 1.781.188.532.199.954.515 1.266.953.32.43.516.937.578 1.53.082.731-.062 1.384-.437 1.954-.367.574-.903.992-1.61 1.25l3.422 4.61zm-5.61-5.234l2.298-.265c.695-.082 1.21-.332 1.547-.75.332-.426.46-.954.39-1.579-.074-.613-.324-1.085-.75-1.421-.418-.332-.976-.457-1.672-.375l-2.296.265zm0 0"/></symbol><symbol overflow="visible" id="t"><path d="M.89-.031L.86-1.094l1.062-.031L1.594-10 .53-9.969.5-11.03l3.328-.125.031 1.062-1.062.047.328 8.875 1.063-.047.03 1.063zm0 0"/></symbol><symbol overflow="visible" id="u"><path d="M1.281.047l.422-10.985 6.156.235-.03 1-4.954-.188-.156 3.844 3.875.156-.032.985-3.875-.157-.171 4.157 5 .187-.032 1zm0 0"/></symbol><symbol overflow="visible" id="v"><path d="M1.281.172l1.516-10.89 1.265.187L8.345-.687l1.265-9.079 1.204.172-1.516 10.89-1.281-.171-4.282-9.828L2.47.344zm0 0"/></symbol><symbol overflow="visible" id="w"><path d="M3.969-10.328l2.64.672c1.094.273 1.977.719 2.657 1.344A4.383 4.383 0 0110.609-6c.22.906.188 1.918-.093 3.031C10.086-1.3 9.289-.117 8.125.578c-1.168.695-2.578.836-4.234.422L1.25.328zm.156 10.25c1.27.32 2.352.226 3.25-.281.895-.52 1.531-1.5 1.906-2.938.364-1.445.274-2.61-.265-3.484-.543-.883-1.45-1.489-2.72-1.813l-1.437-.36L2.688-.436zm0 0"/></symbol><symbol overflow="visible" id="x"><path d="M1.203.438L4.937-9.906l1.141.406-3.39 9.406 4.656 1.688L7 2.53zm0 0"/></symbol><symbol overflow="visible" id="y"><path d="M10.89-7.078l1.016.453-5.953 4.406-1.875 4.094L3 1.375 4.906-2.75l-.531-7.328 1.094.5.453 6.219zm0 0"/></symbol><symbol overflow="visible" id="z"><path d="M4.375 3.125C3.594 2.625 3.039 2 2.719 1.25c-.313-.75-.39-1.578-.235-2.484.164-.914.57-1.875 1.22-2.875.655-1.008 1.362-1.786 2.124-2.329.758-.539 1.535-.828 2.328-.859.79-.031 1.563.195 2.313.672.77.492 1.32 1.086 1.656 1.781.332.688.453 1.438.36 2.25l-1.126-.047c.051-.707-.043-1.304-.28-1.796-.243-.489-.642-.91-1.204-1.266-.805-.508-1.656-.567-2.563-.172-.898.398-1.742 1.21-2.53 2.438-.524.804-.868 1.57-1.032 2.296-.168.72-.156 1.36.031 1.922A2.446 2.446 0 004.828 2.11c.645.414 1.234.594 1.766.532.539-.055 1.164-.282 1.875-.688l.515 1.063c-.78.5-1.562.757-2.343.78-.774.032-1.528-.194-2.266-.671zm0 0"/></symbol><symbol overflow="visible" id="A"><path d="M6.328 5.063l1.047-3.11L3.812-.89 1.095.875.14.109l9.937-6.14.875.703L7.22 5.766zm-1.594-6.5L7.704.938 9.515-4.47zm0 0"/></symbol><symbol overflow="visible" id="B"><path d="M.922.906l7.75-7.812.906.906-2.5 10.453 6.469-6.516.875.86-7.75 7.812-.922-.906L8.219-4.719 1.78 1.766zm0 0"/></symbol><symbol overflow="visible" id="C"><path d="M2.344 2.86l7.734-6.344-2.187-2.672.765-.625L13.812-.5l-.765.625-2.203-2.672-7.735 6.344zm0 0"/></symbol><symbol overflow="visible" id="D"><path d="M.719 1.063l9.11-6.172L13.28-.016l-.844.563-2.78-4.094L6.468-1.39l2.187 3.204-.812.562L5.656-.828 2.22 1.5 5.03 5.625l-.828.563zm0 0"/></symbol><symbol overflow="visible" id="E"><path d="M.625 1.125l9.61-5.344 2.984 5.375-.89.485-2.407-4.329-3.36 1.876 1.891 3.39-.86.485-1.89-3.391-3.625 2.015 2.438 4.375-.875.485zm0 0"/></symbol><symbol overflow="visible" id="F"><path d="M.516 1.188l10.093-4.36.5 1.172-6.203 8.781 8.422-3.64.485 1.125L3.719 8.625l-.516-1.188 6.172-8.765-8.39 3.625zm0 0"/></symbol><symbol overflow="visible" id="K"><path d="M19.703-.563c-.055.086-.172.106-.36.063a2.602 2.602 0 00-.671-.078c-.25 0-.61.055-1.078.156-.461.106-1.188.266-2.188.484-.992.22-1.898.329-2.719.329-1.855 0-3.656-.438-5.406-1.313A10.588 10.588 0 013.094-4.64C2.05-6.242 1.53-8.1 1.53-10.219c0-2.125.524-4.047 1.578-5.765 1.52-2.52 3.813-4.16 6.875-4.922.977-.239 1.957-.36 2.938-.36 1.332 0 2.922.227 4.765.672.551.137 1.02.278 1.407.422.383.149.625.219.718.219l.438-.11h.453c.113 0 .172.086.172.25v4.547c0 .094-.09.141-.266.141-.18 0-.28-.02-.312-.063-.024-.039-.047-.093-.078-.156a2.328 2.328 0 00-.11-.187c-.03-.07-.062-.14-.093-.203-.032-.063-.055-.102-.063-.125-1.469-2.946-3.695-4.422-6.672-4.422-2.68 0-4.777.86-6.297 2.578-1.511 1.71-2.265 3.976-2.265 6.797 0 2.812.832 5.23 2.5 7.25C8.883-1.633 11.145-.625 14-.625c1.563 0 2.984-.46 4.266-1.39a10.04 10.04 0 003.03-3.422c.02-.051.079-.079.173-.079h.203c.094 0 .14.059.14.172a.615.615 0 01-.093.328zm0 0"/></symbol><symbol overflow="visible" id="L"><path d="M7.797-.125c0 .086-.043.125-.125.125H.188c-.075 0-.11-.04-.11-.125v-.344c0-.082.063-.125.188-.125 1.332-.05 2.234-.758 2.703-2.125L8.953-20.03c.008-.008.016-.032.016-.063l-.172-.484c0-.05.02-.078.062-.078h2.938c.02.011.047.023.078.031.031.012.055.043.078.094l6.203 17.375c.133.273.242.515.328.734.082.211.176.402.282.578.226.399.613.703 1.156.922.445.219.86.328 1.234.328.07 0 .11.047.11.14v.329c0 .086-.04.125-.11.125h-8.968c-.075 0-.11-.04-.11-.125v-.344c0-.082.176-.129.531-.14.364-.02.66-.04.891-.063 1.363-.144 2.047-.601 2.047-1.375a.805.805 0 00-.031-.203l-2.22-6.25a.721.721 0 01-.046-.125c-.125-.332-.336-.5-.625-.5H7.422c-.293 0-.524.164-.688.484a.557.557 0 00-.046.11L4.5-2.094v.125c0 .262.129.492.39.688.594.46 1.395.687 2.407.687h.375c.082 0 .125.043.125.125zm4.328-10.625c.176 0 .266-.07.266-.219a.707.707 0 00-.063-.265l-2.172-6c-.105-.27-.18-.407-.219-.407-.054 0-.132.137-.234.407l-2.062 6a.99.99 0 00-.047.312c0 .117.07.172.218.172zm0 0"/></symbol><symbol overflow="visible" id="M"><path d="M1 0C.914 0 .875-.04.875-.125v-.344c0-.082.05-.125.156-.125h.328c.54 0 .91-.047 1.11-.14.719-.352 1.078-1.32 1.078-2.907v-15.218c0-.645-.637-1.036-1.906-1.172a10.54 10.54 0 00-.594-.032c-.117 0-.172-.039-.172-.125v-.343c0-.082.04-.125.125-.125h5.36L20.265-5.281c.039.043.07.078.093.11.02.023.051.03.094.03.04 0 .063-.046.063-.14V-15.36c0-1.946-.164-3.22-.485-3.813-.312-.594-.96-.89-1.937-.89h-.75c-.074 0-.11-.04-.11-.125v-.344c0-.082.036-.125.11-.125h7.625c.07 0 .11.043.11.125v.343c0 .086-.15.125-.438.125-.282 0-.758.168-1.422.5-.657.325-.985.731-.985 1.22V-.423c0 .211-.03.36-.093.453-.055.094-.188.14-.407.14-.218 0-.386-.046-.5-.14a2.79 2.79 0 01-.375-.375L5.75-17.078c-.094-.102-.18-.156-.25-.156-.055 0-.078.054-.078.156v14.61c0 .898.703 1.484 2.11 1.765.382.074.679.11.89.11.207 0 .312.042.312.124v.344c0 .086-.043.125-.125.125zm0 0"/></symbol><symbol overflow="visible" id="N"><path d="M5.844-.469c0-.082.047-.125.14-.125h.407c.957 0 1.722-.203 2.296-.61.583-.405.876-.882.876-1.437v-16.218c0-.196-.043-.305-.126-.328a2.16 2.16 0 00-.296-.079H3.516c-.907.2-1.5.899-1.782 2.094-.156.649-.25 1.063-.28 1.25-.032.18-.087.266-.157.266H1.03c-.062 0-.093-.02-.093-.063v-.484l.546-4.563c.051-.3.145-.453.282-.453.144 0 .296.094.453.282.156.187.453.28.89.28h15.782c.425 0 .68-.046.765-.14.094-.101.176-.195.25-.281a.38.38 0 01.297-.14c.125 0 .203.046.235.14.039.094.066.2.078.312l.547 4.563v.484c0 .043-.028.063-.079.063h-.265c-.086 0-.14-.07-.172-.219-.156-.977-.383-1.754-.672-2.328a1.957 1.957 0 00-1.39-1.063h-5.641a1.895 1.895 0 00-.297.078c-.086.024-.125.133-.125.329v16.218c0 .555.289 1.032.875 1.438.582.406 1.348.61 2.297.61h.437c.07 0 .11.042.11.124v.344c0 .086-.04.125-.11.125H5.97c-.086 0-.125-.04-.125-.125zm0 0"/></symbol><symbol overflow="visible" id="O"><path d="M.11-.125v-.406c0-.07.035-.11.109-.11h.328c.406-.03.82-.046 1.25-.046a4.78 4.78 0 001.172-.157c.8-.238 1.203-.828 1.203-1.765v-15.438c0-.969-.57-1.582-1.703-1.844-.324-.07-.653-.129-.985-.172h-.312c-.074 0-.11-.039-.11-.125v-.343c0-.082.036-.125.11-.125h13.937c.164 0 .286.031.36.093.082.063.133.204.156.422l.266 4.25c0 .094-.075.141-.22.141-.148 0-.25-.04-.312-.125-.062-.102-.14-.46-.234-1.078-.094-.613-.266-1.125-.516-1.531-.242-.414-.668-.676-1.28-.782h-6.11c-.125 0-.188.063-.188.188v7.578c0 .094.047.14.14.14h5.079c1.3 0 1.953-.757 1.953-2.28 0-.07.04-.11.125-.11h.344c.082 0 .125.04.125.11v6.265c0 .086-.043.125-.125.125h-.344c-.086 0-.125-.04-.125-.125 0-1.438-.418-2.27-1.25-2.5a2.99 2.99 0 00-.75-.094H7.172c-.094 0-.14.055-.14.156v7.126c0 .742.335 1.156 1.015 1.25.187.03.39.046.61.046h4.874c1.008 0 1.79-.441 2.344-1.328.406-.633.648-1.363.734-2.187.032-.27.176-.407.438-.407.125 0 .187.063.187.188L16.75-.203c-.063.137-.137.203-.219.203H.22c-.074 0-.11-.04-.11-.125zm0 0"/></symbol><clipPath id="G"><path d="M192 130.758h4V139h-4zm0 0"/></clipPath><clipPath id="H"><path d="M178 130.758h4V139h-4zm0 0"/></clipPath><clipPath id="I"><path d="M203 154h14.742v28H203zm0 0"/></clipPath><clipPath id="J"><path d="M171 173h19v14.758h-19zm0 0"/></clipPath></defs><use xlink:href="#a" x="114.431" y="252.578"/><use xlink:href="#b" x="132.857" y="252.578"/><use xlink:href="#c" x="139.213" y="252.578"/><use xlink:href="#d" x="153.449" y="252.578"/><use xlink:href="#e" x="158.343" y="252.578"/><use xlink:href="#f" x="173.207" y="252.578"/><use xlink:href="#g" x="187.001" y="252.578"/><use xlink:href="#c" x="203.641" y="252.578"/><use xlink:href="#h" x="217.876" y="252.578"/><use xlink:href="#h" x="229.777" y="252.578"/><use xlink:href="#g" x="241.677" y="252.578"/><use xlink:href="#i" x="93.339" y="178.217" fill="#534430"/><use xlink:href="#j" x="99.275" y="165.494" fill="#534430"/><use xlink:href="#k" x="102.205" y="160.287" fill="#534430"/><use xlink:href="#l" x="110.365" y="148.906" fill="#534430"/><use xlink:href="#m" x="116.596" y="141.956" fill="#534430"/><use xlink:href="#n" x="125.503" y="134.066" fill="#534430"/><use xlink:href="#o" x="134.074" y="128.015" fill="#534430"/><use xlink:href="#p" x="142.396" y="123.297" fill="#534430"/><use xlink:href="#q" x="150.493" y="119.613" fill="#534430"/><use xlink:href="#r" x="163.862" y="115.33" fill="#534430"/><use xlink:href="#s" x="171.75" y="113.669" fill="#534430"/><use xlink:href="#t" x="181.887" y="112.608" fill="#534430"/><use xlink:href="#u" x="187.87" y="112.37" fill="#534430"/><use xlink:href="#v" x="196.709" y="112.683" fill="#534430"/><use xlink:href="#w" x="207.943" y="114.301" fill="#534430"/><use xlink:href="#x" x="218.658" y="117.138" fill="#534430"/><use xlink:href="#y" x="226.634" y="120.052" fill="#534430"/><use xlink:href="#z" x="238.486" y="125.851" fill="#534430"/><use xlink:href="#A" x="247.27" y="131.56" fill="#534430"/><use xlink:href="#B" x="255.182" y="137.89" fill="#534430"/><use xlink:href="#C" x="263.208" y="145.975" fill="#534430"/><use xlink:href="#D" x="269.13" y="153.266" fill="#534430"/><use xlink:href="#E" x="274.103" y="160.656" fill="#534430"/><use xlink:href="#F" x="278.429" y="168.371" fill="#534430"/><path d="M.5 0h16.614" transform="matrix(1.49068 0 0 1.2973 81.91 255.1)" fill="none" stroke-linecap="round" stroke="#000"/><path d="M.5 0h16.614" transform="matrix(1.49068 0 0 1.2973 259.82 255.1)" fill="none" stroke-linecap="round" stroke="#000"/><path d="M176.492 159.91a.626.626 0 01-.562-.355 12.478 12.478 0 01-1.239-5.45c0-6.875 5.543-12.468 12.36-12.468 6.816 0 12.36 5.593 12.36 12.468 0 1.91-.419 3.743-1.24 5.45a.62.62 0 01-.831.289.629.629 0 01-.285-.836 11.206 11.206 0 001.113-4.903c0-6.183-4.984-11.218-11.117-11.218-6.133 0-11.117 5.035-11.117 11.218 0 1.72.375 3.372 1.113 4.903a.627.627 0 01-.555.902" fill="#534430"/><g clip-path="url(#G)"><path d="M192.73 138.984a.625.625 0 01-.582-.84l2.446-6.777a.62.62 0 111.164.426l-2.442 6.781a.625.625 0 01-.586.41" fill="#534430"/></g><g clip-path="url(#H)"><path d="M181.371 138.984a.616.616 0 01-.582-.41l-2.45-6.781a.63.63 0 01.372-.8.619.619 0 01.797.374l2.445 6.778a.624.624 0 01-.582.84" fill="#534430"/></g><path d="M172.668 146.355a.649.649 0 01-.313-.085l-6.19-3.606a.636.636 0 01-.227-.855c.171-.301.55-.403.851-.23l6.188 3.605a.626.626 0 01.226.855.611.611 0 01-.535.316M201.434 146.355a.622.622 0 01-.54-.316.636.636 0 01.227-.855l6.191-3.606a.622.622 0 01.852.23c.168.301.066.68-.226.856l-6.192 3.606a.66.66 0 01-.312.085M187.629 166.957c.906 0 1.781.574 2.601 1.707.204.3 4.637 6.746 10.637 3.121l-2.73-6.445-7.723-1.844c-1.328-.273-2.18-.34-3.082.063l-3.078 1.367a3.694 3.694 0 00-2.063 2.37l-.816 2.821c-.086.305.047.63.313.762.59.293 1.128.348 1.609.164.664-.254 1.246-.973 1.719-2.137a.38.38 0 00.02-.043c.034-.074.905-1.773 2.413-1.898.059-.004.121-.008.18-.008zm9.594 7.188c-4.754 0-7.965-4.7-8.008-4.762-.403-.551-1.028-1.219-1.664-1.172-.664.055-1.235.883-1.399 1.2-.605 1.48-1.422 2.425-2.414 2.804-.804.308-1.703.234-2.601-.211-.809-.402-1.211-1.344-.953-2.238l.816-2.82a4.975 4.975 0 012.75-3.169l3.082-1.367c1.324-.59 2.527-.41 3.848-.137l8.047 1.922c.191.043.351.18.425.364l3.067 7.222a.636.636 0 01-.227.766c-1.703 1.152-3.308 1.598-4.77 1.598" fill="#534430"/><path d="M196.238 174.094l2.059 2.89 4.203-1.347-1.11-2.625c-1.824 1.246-3.788 1.285-5.152 1.082zm1.817 4.254a.62.62 0 01-.504-.262l-3.313-4.656a.633.633 0 01.02-.754.614.614 0 01.722-.192c.145.063 3.56 1.426 6.262-.933a.621.621 0 01.977.23l1.691 3.996a.638.638 0 01-.004.508.632.632 0 01-.379.336l-5.285 1.695a.629.629 0 01-.187.032M162.367 180.625a.583.583 0 01-.226-.043l-4.696-1.875a.63.63 0 01-.347-.812.616.616 0 01.804-.352l4.125 1.644 7.942-19.57-12.528-5.125a.634.634 0 01-.343-.816.624.624 0 01.812-.344l13.102 5.36a.61.61 0 01.34.335.621.621 0 01.003.48l-8.414 20.731a.616.616 0 01-.574.387" fill="#534430"/><path d="M170.777 176.652a.66.66 0 01-.222-.043l-5.864-2.3a.635.635 0 01-.355-.813.615.615 0 01.805-.355l5.304 2.082 4.832-11.395-5.418-2.3a.633.633 0 01-.332-.825.618.618 0 01.813-.332l5.996 2.547a.629.629 0 01.328.824l-5.312 12.531a.629.629 0 01-.575.38" fill="#534430"/><g clip-path="url(#I)"><path d="M212.309 181.938a.624.624 0 01-.575-.391l-8.41-20.727a.621.621 0 01.34-.816l13.106-5.363a.626.626 0 01.465 1.16l-12.528 5.125 7.945 19.574 4.121-1.648a.618.618 0 01.805.351.628.628 0 01-.348.817l-4.69 1.87a.623.623 0 01-.231.048" fill="#534430"/></g><path d="M203.898 177.96a.623.623 0 01-.574-.378l-5.312-12.531a.658.658 0 01-.004-.48.618.618 0 01.336-.344l5.992-2.547a.619.619 0 01.812.336.63.63 0 01-.332.82l-5.418 2.3 4.832 11.395 5.305-2.082c.32-.125.68.031.805.356a.629.629 0 01-.356.812l-5.863 2.301a.551.551 0 01-.223.043M197.414 182.242a2.436 2.436 0 01-1.789-.785l-6.258-6.7a.632.632 0 01.024-.886.616.616 0 01.879.027l6.257 6.7c.297.316.73.453 1.149.363.43-.09.765-.39.91-.805a1.012 1.012 0 00-.164-.965l-4.555-5.765a.63.63 0 01.098-.883.616.616 0 01.87.098l4.56 5.77c.484.612.62 1.421.363 2.163a2.466 2.466 0 01-2.344 1.668" fill="#534430"/><path d="M194.29 184.52a3.32 3.32 0 01-2.419-1.051l-5.27-5.559a.636.636 0 01.02-.887c.25-.238.64-.23.879.024l5.266 5.555a2.097 2.097 0 002.02.609 2.067 2.067 0 001.507-1.387l.02-.07 1.19.351-.03.098a3.281 3.281 0 01-2.41 2.227c-.258.058-.516.09-.774.09" fill="#534430"/><path d="M190.906 186.555c-.062 0-.125 0-.183-.004-.856-.047-1.676-.461-2.305-1.16l-4.352-4.883a.628.628 0 01.047-.883.612.612 0 01.875.047l4.356 4.879c.398.445.926.722 1.445.746.84.043 1.578-.426 2.172-1.414a.616.616 0 01.855-.207c.293.18.387.566.207.86-.996 1.644-2.214 2.019-3.117 2.019M184.8 164.621a.854.854 0 01-.14-.012c-3.77-.87-8.469-.496-8.515-.492a.626.626 0 01-.102-1.246c.2-.02 4.937-.398 8.894.516a.624.624 0 01-.137 1.234" fill="#534430"/><g clip-path="url(#J)"><path d="M187.574 187.625a2.414 2.414 0 01-1.68-.684l-2.042-1.976c-6.438-6.367-12.434-10.578-12.497-10.621a.633.633 0 01-.156-.871.619.619 0 01.863-.16c.063.042 6.141 4.312 12.657 10.753l2.035 1.973c.383.371.875.379 1.21.266.192-.063.653-.282.743-.871.047-.344.36-.61.695-.563a.607.607 0 01.543.68c0 .027-.007.058-.011.086a2.315 2.315 0 01-1.575 1.855c-.257.09-.523.133-.785.133" fill="#534430"/></g><path d="M175.758 180.035c-.48 0-.965-.16-1.367-.492a2.016 2.016 0 01-.727-1.406 2.015 2.015 0 01.504-1.504l.535-.606a.62.62 0 01.879-.05.633.633 0 01.047.886l-.535.606a.776.776 0 00.082 1.105.912.912 0 001.265-.101l.524-.598a.615.615 0 01.875-.055c.258.23.281.625.055.883l-.524.598a2.133 2.133 0 01-1.613.734" fill="#534430"/><path d="M177.762 183.172c-.54 0-1.086-.192-1.528-.582a2.333 2.333 0 01-.8-1.613 2.338 2.338 0 01.566-1.711l1.094-1.274a.616.616 0 01.875-.066.637.637 0 01.062.887l-1.097 1.273a1.093 1.093 0 00-.262.805c.02.293.152.558.375.754.45.394 1.117.355 1.52-.09l1.18-1.293a.612.612 0 01.874-.04c.254.235.27.63.04.887l-1.177 1.293c-.46.512-1.09.77-1.722.77" fill="#534430"/><path d="M180.695 185.027a2.293 2.293 0 01-1.582-.629 2.367 2.367 0 01-.129-3.3l.762-.836a.612.612 0 01.875-.04c.254.235.27.63.04.887l-.763.836a1.101 1.101 0 00.063 1.535c.434.41 1.117.387 1.523-.05l.797-.852a.614.614 0 01.875-.023c.25.238.262.632.028.882l-.797.852a2.302 2.302 0 01-1.692.738" fill="#534430"/><path d="M183.492 186.809a2.2 2.2 0 01-1.539-.618 2.274 2.274 0 01-.086-3.171l.305-.32a.611.611 0 01.875-.028c.25.238.262.633.027.887l-.3.32a1.009 1.009 0 00.035 1.406.99.99 0 001.39-.023l.418-.434a.615.615 0 01.88-.008.627.627 0 01.007.883l-.418.434a2.209 2.209 0 01-1.594.672" fill="#534430"/><use xlink:href="#K" x="112.496" y="225.43" fill="#f13223"/><use xlink:href="#L" x="134.685" y="225.43" fill="#f13223"/><use xlink:href="#M" x="155.278" y="225.43" fill="#f13223"/><use xlink:href="#N" x="180.119" y="225.43" fill="#f13223"/><use xlink:href="#O" x="201.371" y="225.43" fill="#f13223"/><use xlink:href="#O" x="219.136" y="225.43" fill="#f13223"/><use xlink:href="#M" x="236.902" y="225.43" fill="#f13223"/></svg>