<svg height="512" viewBox="0 0 61 60" width="512" xmlns="http://www.w3.org/2000/svg"><path id="Shape" d="m51.48 30.56c2.0440524-.877731 3.8553244-2.2199212 5.29-3.92 5.23-6.26 4.23-14.44 4.23-14.79-.12-6.54-8.14-11.85-18-11.85s-18 5.37-18 12v.66c.2422721 4.6572462 1.7685959 9.1566132 4.41 13l-.77 1.32-2.32-4c-.682057-1.2023195-1.9576926-1.9452705-3.34-1.9452705s-2.657943.742951-3.34 1.9452705l-18.07 30.85c-.74580319 1.2363721-.78071969 2.7753361-.09175745 4.0442605.68896223 1.2689245 1.9986555 2.0778329 3.44175745 2.1257395h36.16c1.4431019-.0479066 2.7527952-.856815 3.4417575-2.1257395.6889622-1.2689244.6540457-2.8078884-.0917575-4.0442605l-1.08-1.83h13.73c1.4440525-.0453456 2.7552172-.8546731 3.4430024-2.1252224.6877852-1.2705492.6485598-2.8108821-.1030024-4.0447776zm-1-1.73-3.08-5.23c4.89-.8 8.89-2.89 11.25-5.68-.99 4.92-3.6 8.98-8.18 10.91zm-14.82-13.83-.82 1.39c-1.3416853-.5546049-2.4970142-1.4809497-3.33-2.67 4.43-4.89 18.54-4.9 23 0-1.44 2.28-5.61 4.01-10.41 4.28l-1.76-3c-.6735187-1.213442-1.9521711-1.9661392-3.34-1.9661392s-2.6664813.7526972-3.34 1.9661392zm-4.59-3.59c.65-3.01 5.85-5.41 11.93-5.41s11.28 2.4 11.93 5.37c-5.7-4.49-18.16-4.5-23.86 0zm11.93-9.41c8.82 0 16 4.48 16 10 0 4.67-5.41 8.79-12.69 9.75l-1.08-1.85c5.57-.49 10-2.77 11.37-5.93.268045-.6219665.4042439-1.2927464.4-1.97 0-4.49-6.15-8-14-8-13.38 0-18.68 9.42-9.17 14.08l-.94 1.6c-3.17-1.62-5.84-4.12-5.89-7.68-.08-5.52 7.18-10 16-10zm-14.72 16.92c1.07552.9950645 2.2836625 1.8363894 3.59 2.5l-1.32 2.26c-.9536757-1.4849779-1.7163545-3.0842515-2.27-4.76zm-24.98 35.92 18.08-30.84c.3254438-.5901499.9460634-.9566356 1.62-.9566356s1.2945562.3664857 1.62.9566356l1.28 2.2c-.13 5.18.25 20.92 8.94 31.84h-29.92c-.73893215-.0401709-1.40021235-.4717551-1.73445788-1.1319932-.33424554-.6602381-.29060728-1.4486873.11445788-2.0680068zm37.78 3.16h-3.63c-7.76-8.67-9.31-21.41-9.53-28.41l14.78 25.25c.3910093.6163926.4266234 1.3936816.0936182 2.0432473s-.9848972 1.074399-1.7136182 1.1167527zm-11.26-29.11c3.08-5.27 5.76-9.84 7.56-12.93.3209416-.5959251.9431469-.9675322 1.62-.9675322s1.2990584.3716071 1.62.9675322l1.28 2.2c-.13 5.19.26 20.92 8.94 31.84h-8.66zm27.26 21.11h-3.63c-7.76-8.67-9.31-21.41-9.53-28.4 8.28 14.14 7.61 13 14.78 25.25.3859384.6159033.4187452 1.3896065.0863298 2.0359696-.3324153.6463632-.9808497 1.0697137-1.7063298 1.1140304z" transform="translate(-1)"/></svg>