<?xml version="1.0" encoding="iso-8859-1"?>
<!-- Generator: Adobe Illustrator 19.0.0, SVG Export Plug-In . SVG Version: 6.00 Build 0)  -->
<svg version="1.1" id="Capa_1" xmlns="http://www.w3.org/2000/svg" xmlns:xlink="http://www.w3.org/1999/xlink" x="0px" y="0px"
	 viewBox="0 0 512 512" style="enable-background:new 0 0 512 512;" xml:space="preserve">
<g>
	<g>
		<path d="M180.345,352.54c-4.142,0-7.5,3.358-7.5,7.5v13.692c0,4.142,3.358,7.5,7.5,7.5c4.142,0,7.5-3.358,7.5-7.5V360.04
			C187.845,355.898,184.487,352.54,180.345,352.54z"/>
	</g>
</g>
<g>
	<g>
		<path d="M331.655,352.54c-4.142,0-7.5,3.358-7.5,7.5v13.692c0,4.142,3.358,7.5,7.5,7.5c4.142,0,7.5-3.358,7.5-7.5V360.04
			C339.155,355.898,335.797,352.54,331.655,352.54z"/>
	</g>
</g>
<g>
	<g>
		<path d="M283.879,368.054c-3.119-2.726-7.857-2.408-10.583,0.711c-4.215,4.821-10.519,7.586-17.296,7.586
			c-6.777,0-13.081-2.765-17.295-7.587c-2.726-3.118-7.464-3.437-10.583-0.711s-3.437,7.464-0.711,10.583
			c7.063,8.081,17.484,12.715,28.589,12.715c11.105,0,21.526-4.634,28.589-12.714C287.316,375.518,286.997,370.78,283.879,368.054z"
			/>
	</g>
</g>
<g>
	<g>
		<path d="M483.949,260.654h-16.621c-3.97-26.047-16.715-49.988-36.354-68.005c-8.221-7.542-17.379-13.783-27.181-18.619
			l61.675-134.331c0.072-0.159,0.176-0.396,0.251-0.573c4.429-10.524-0.528-22.689-11.05-27.118
			c-10.525-4.431-22.689,0.527-27.119,11.05l-58.996,140.14c-1.868-0.259-3.745-0.471-5.63-0.64
			c-1.217-2.866-2.549-5.664-3.98-8.395l37.132-127.707c0.051-0.179,0.125-0.446,0.165-0.604c1.375-5.358,0.58-10.93-2.238-15.69
			c-2.817-4.759-7.319-8.137-12.676-9.511c-11.056-2.834-22.365,3.854-25.201,14.915l-26.349,102.766
			c-20.412-16.799-46.376-26.642-73.776-26.642c-46.471,0-88.83,28.285-106.924,70.868c-25.289,2.26-49.14,12.742-68.05,30.09
			c-19.639,18.017-32.385,41.958-36.354,68.005H28.051c-4.142,0-7.5,3.358-7.5,7.5v22.146c0,6.677,0.378,13.379,1.124,19.931
			c1.604,14.193,4.959,28.181,9.971,41.574c1.428,3.816,5.845,5.822,9.653,4.396c3.879-1.452,5.848-5.773,4.396-9.653
			c-3.596-9.61-6.259-19.553-7.947-29.659h363.336c4.142,0,7.5-3.358,7.5-7.5c0-4.142-3.358-7.5-7.5-7.5H35.964
			c-0.274-3.843-0.413-26.235-0.413-26.235h440.898c0,0-0.138,22.392-0.413,26.235h-44.953c-4.142,0-7.5,3.358-7.5,7.5
			c0,4.142,3.358,7.5,7.5,7.5h43.174c-11.149,67.174-63.38,119.158-129.001,131.254c-0.034,0.006-0.068,0.007-0.102,0.013
			c-9.603,1.766-19.435,2.661-29.223,2.661H196.069c-7.011,0-14.061-0.431-21.008-1.378c-0.051-0.007-0.102-0.012-0.153-0.019
			c-20.915-2.773-41.133-9.636-59.385-20.25c-23.643-13.748-43.53-33.443-57.512-56.956c-2.117-3.56-6.719-4.73-10.28-2.613
			c-3.56,2.117-4.73,6.719-2.613,10.28c15.283,25.702,37.021,47.23,62.865,62.257c15.581,9.06,32.473,15.601,50.007,19.488V504.5
			c0,4.142,3.358,7.5,7.5,7.5h181.021c4.142,0,7.5-3.358,7.5-7.5v-42.832c71.823-15.862,127.751-75.691,136.315-151.445
			c0.745-6.544,1.123-13.247,1.123-19.923v-22.146C491.449,264.012,488.091,260.654,483.949,260.654z M441.376,28.875
			c1.221-2.9,4.574-4.266,7.474-3.045c2.9,1.221,4.266,4.573,3.051,7.458l-61.97,134.982c-0.033-0.011-0.067-0.021-0.1-0.033
			c-2.083-0.705-4.184-1.362-6.304-1.947L441.376,28.875z M370.656,19.291c0.782-3.048,3.897-4.891,6.945-4.11
			c1.477,0.378,2.717,1.31,3.494,2.621c0.776,1.312,0.995,2.847,0.613,4.338l-33.489,115.187c-1.896-2.476-3.892-4.876-5.982-7.196
			L370.656,19.291z M256,106.689c35.787,0,68.781,19.268,86.833,49.375c0.055,0.092,2.401,4.178,3.424,6.194
			c-6.247,0.335-12.476,1.188-18.589,2.518c-0.75,0.163-1.498,0.33-2.243,0.507c-14.793-24.158-40.866-38.929-69.425-38.929
			s-54.633,14.772-69.426,38.929c-5.011-1.198-10.131-2.063-15.332-2.589c-1.828-0.184-3.664-0.337-5.499-0.437
			C182.811,128.624,217.816,106.689,256,106.689z M256.001,161.02c-14.42,0-27.829,6.635-36.619,17.699
			c-5.702-3.44-11.7-6.387-17.933-8.801c12.349-17.808,32.55-28.563,54.552-28.563c22.003,0,42.203,10.753,54.551,28.563
			c-0.249,0.096-0.5,0.19-0.748,0.288c-4.994,1.984-9.853,4.306-14.528,6.955c-0.893,0.506-1.777,1.027-2.656,1.558
			C283.83,167.655,270.422,161.02,256.001,161.02z M280.292,187.301c-0.091,0.072-0.181,0.146-0.271,0.218
			c-8.706,6.955-16.377,15.221-22.736,24.367c-0.431,0.62-0.865,1.237-1.284,1.867c-0.089-0.133-0.878-1.282-1.185-1.722
			c-6.537-9.437-14.336-17.739-23.107-24.73c5.976-7.075,14.819-11.281,24.292-11.281
			C265.475,176.02,274.317,180.226,280.292,187.301z M132.942,260.652c5.767-8.697,15.63-14.23,26.508-14.23
			s20.741,5.534,26.508,14.23H132.942z M202.827,260.652c-7.061-17.468-24.143-29.23-43.377-29.23
			c-19.234,0-36.316,11.763-43.377,29.23H95.371c7.794-28.401,33.963-48.896,64.079-48.896c30.116,0,56.285,20.495,64.079,48.896
			H202.827z M238.959,260.652c-8.137-36.852-41.211-63.896-79.51-63.896s-71.373,27.044-79.51,63.896H59.865
			c3.832-21.796,14.763-41.78,31.302-56.953c18.443-16.92,43.243-26.609,68.283-26.609c18.252,0,36.494,5.094,52.118,14.523
			c24.608,14.849,42.366,40.469,47.418,68.792c0.015,0.083,0.029,0.165,0.044,0.247H238.959z M326.043,260.652
			c5.767-8.697,15.63-14.23,26.508-14.23s20.741,5.534,26.508,14.23H326.043z M395.928,260.652
			c-7.061-17.468-24.143-29.23-43.377-29.23s-36.316,11.763-43.377,29.23h-20.703c7.794-28.401,33.963-48.896,64.079-48.896
			c30.116,0,56.285,20.495,64.079,48.896H395.928z M432.06,260.652c-8.137-36.852-41.211-63.896-79.51-63.896
			c-37.281,0-69.607,25.629-78.804,60.983c-0.06-0.334-0.115-0.67-0.178-1.004c-1.819-9.685-4.9-19.168-9.114-28.075
			c0.126-0.224,0.252-0.448,0.38-0.67c6.096-10.59,14.229-20.177,23.674-27.933c0.022-0.018,0.045-0.036,0.067-0.054
			c17.813-14.485,40.97-22.913,63.975-22.913c24.961,0,49.902,9.746,68.283,26.609c16.539,15.173,27.471,35.157,31.303,56.953
			H432.06z M339.011,496.999H172.989v-32.697c7.649,1.006,15.364,1.513,23.08,1.513h119.863c7.678,0,15.363-0.507,22.976-1.501
			c0.034-0.005,0.069-0.008,0.103-0.012V496.999z"/>
	</g>
</g>
<g>
</g>
<g>
</g>
<g>
</g>
<g>
</g>
<g>
</g>
<g>
</g>
<g>
</g>
<g>
</g>
<g>
</g>
<g>
</g>
<g>
</g>
<g>
</g>
<g>
</g>
<g>
</g>
<g>
</g>
</svg>
