<svg id="Layer_3" enable-background="new 0 0 64 64" height="512" viewBox="0 0 64 64" width="512" xmlns="http://www.w3.org/2000/svg"><g><path d="m44 1c-4.625 0-8.442 3.507-8.941 8h-7.503l-.122-1.551c-.286-3.616-3.351-6.449-6.979-6.449h-6.455c-.553 0-1 .448-1 1v3c0 .552.447 1 1 1h6.246c1.047 0 1.903.786 1.993 1.829l.101 1.171h-10.34c-.343 0-.662.176-.845.465-.184.29-.206.653-.059.963l2.759 5.814c1.483 4.862 1.681 9.752.569 14.144-.361 1.43-.493 2.909-.392 4.398.38 5.579 4.245 10.528 9.62 12.316.807.269 1.348 1.025 1.348 1.884v1.576c0 2.488-1.812 4.57-4.307 4.95-6.693 1.018-6.693 2.879-6.693 3.49 0 3.888 12.567 4 14 4s14-.112 14-4c0-.611 0-2.472-6.693-3.49-2.495-.38-4.307-2.462-4.307-4.95v-1.56c0-.865.534-1.62 1.328-1.878 5.785-1.879 9.672-7.227 9.672-13.309 0-.998-.106-1.995-.316-2.963-.926-4.27-.97-8.363-.158-12.204.8.229 1.627.354 2.474.354 4.963 0 9-4.038 9-9s-4.037-9-9-9zm2.019 5.567c-.315-.187-.656-.331-1.019-.425v-3.062c1.183.17 2.269.636 3.184 1.322zm-3.019-.425c-.363.094-.704.238-1.019.425l-2.165-2.165c.915-.686 2.001-1.152 3.184-1.322zm1 1.858c1.103 0 2 .897 2 2 0 1.042-.804 1.891-1.823 1.982l.729-1.559c.145-.31.121-.672-.062-.96-.184-.288-.502-.463-.844-.463h-1.722c.347-.595.985-1 1.722-1zm1 5.858c.363-.094.704-.238 1.019-.425l2.165 2.165c-.915.686-2.001 1.152-3.184 1.322zm2.433-1.839c.186-.316.33-.656.425-1.019h3.062c-.17 1.183-.636 2.269-1.322 3.184zm.425-3.019c-.094-.363-.238-.704-.425-1.019l2.165-2.165c.686.915 1.152 2.001 1.322 3.184zm-9.456-3.184 2.165 2.165c-.187.315-.331.656-.425 1.019h-3.062c.17-1.183.636-2.269 1.322-3.184zm4.027 5.184-2.204 4.714c-.02.042-.036.085-.05.129-.318 1.033-.562 2.088-.756 3.157h-4.297c-1.636 0-3.173.637-4.328 1.793-.611.611-1.381.997-2.216 1.139l-.864-10.932zm-16.308 13h.613l1.184 15h-1l-1.288-15.024c.163.013.326.024.491.024zm-.666-2.065-.937-10.935h1.19l.868 11h-.455c-.226 0-.447-.03-.666-.065zm-1.224-14.277c-.178-2.085-1.891-3.658-3.985-3.658h-5.246v-1h5.455c2.592 0 4.781 2.023 4.984 4.606l.11 1.394h-1.203zm-8.538 7.794-2.112-4.452h8.93l.85 9.92c-.05-.045-.107-.079-.154-.127-1.155-1.156-2.692-1.793-4.328-1.793h-2.294c-.218-1.137-.489-2.276-.839-3.414-.015-.046-.032-.091-.053-.134zm19.313 42.035c3.287.5 4.598 1.203 4.934 1.518-.733.767-5.028 1.995-11.94 1.995s-11.207-1.228-11.939-1.995c.336-.315 1.646-1.018 4.934-1.518 3.48-.529 6.005-3.443 6.005-6.927v-.702c.324.084.656.142 1 .142s.676-.058 1-.141v.701c0 3.484 2.525 6.398 6.006 6.927zm-3.295-12.267c-1.131.367-1.992 1.222-2.416 2.291-.728.614-1.856.616-2.585.003-.424-1.07-1.289-1.932-2.425-2.31-4.613-1.535-7.931-5.776-8.255-10.554-.088-1.278.025-2.547.335-3.772.79-3.123.959-6.47.537-9.877h1.978c1.102 0 2.136.429 2.914 1.207.524.525 1.13.936 1.784 1.236l1.426 16.643c.044.516.476.913.996.913h3c.279 0 .545-.117.734-.321s.284-.479.263-.757l-1.262-15.988c1.31-.182 2.521-.775 3.472-1.727.778-.778 1.813-1.207 2.914-1.207h4.004c-.359 3.293-.166 6.729.603 10.273.181.83.271 1.684.271 2.54.001 5.212-3.33 9.796-8.288 11.407zm10.355-28.723.934-1.997v2.42c-.335-.048-.666-.117-.99-.213.021-.069.035-.14.056-.21z"/><path d="m34 28h2v2h-2z"/><path d="m33 39h2v2h-2z"/><path d="m20 34h2v2h-2z"/><path d="m31 33h2v2h-2z"/></g></svg>