<svg height="512" viewBox="0 0 128 128" width="512" xmlns="http://www.w3.org/2000/svg" xmlns:xlink="http://www.w3.org/1999/xlink"><linearGradient id="a" gradientUnits="userSpaceOnUse" x1="110.818" x2="8.924" y1="114.947" y2="13.053"><stop offset="0" stop-color="#f35d2e"/><stop offset="1" stop-color="#ffde3e"/></linearGradient><path d="m16.4 101.029v-4.5a1.75 1.75 0 0 1 3.5 0v4.5a1.75 1.75 0 0 1 -3.5 0zm93.458-72.042a1.749 1.749 0 0 0 1.75-1.75v-6.852a15.845 15.845 0 0 0 -15.832-15.828h-77.63a1.749 1.749 0 0 0 -1.75 1.75v81.568a1.75 1.75 0 0 0 3.5 0v-79.818h9.748v111.886h-9.744v-10.675a1.75 1.75 0 0 0 -3.5 0v12.425a1.749 1.749 0 0 0 1.75 1.75h77.63a15.845 15.845 0 0 0 15.82-15.828v-72.7a1.75 1.75 0 0 0 -3.5 0v72.7a12.342 12.342 0 0 1 -12.328 12.328h-62.628v-111.886h62.632a12.342 12.342 0 0 1 12.324 12.328v6.852a1.75 1.75 0 0 0 1.754 1.75zm-54.558 40.607v-11.154h-3.152l-2.988 5.325-2.987-5.325h-3.149v11.154h3.149v-5.975l2.987 5.325 2.988-5.325v5.975zm13.357-8.345v-2.809h-8.982v11.154h8.979v-2.809h-5.829v-1.478h5.309v-2.807h-5.309v-1.25zm11.522 8.345h3.149v-11.154h-3.152v5.974l-4.351-5.974h-3.15v11.154h3.15v-5.975zm7.428-11.154v6.2a5.312 5.312 0 0 0 10.618 0v-6.2h-3.15v6.039a2.177 2.177 0 1 1 -4.319 0v-6.039zm9.433-9.452h-52.831a1.75 1.75 0 0 0 0 3.5h52.831a1.75 1.75 0 1 0 0-3.5zm-54.581 28.274a1.751 1.751 0 0 0 1.75 1.75h52.831a1.75 1.75 0 1 0 0-3.5h-52.831a1.75 1.75 0 0 0 -1.75 1.75z" fill="url(#a)"/></svg>