<?xml version="1.0" encoding="iso-8859-1"?>
<!-- Generator: Adobe Illustrator 19.0.0, SVG Export Plug-In . SVG Version: 6.00 Build 0)  -->
<svg version="1.1" id="Capa_1" xmlns="http://www.w3.org/2000/svg" xmlns:xlink="http://www.w3.org/1999/xlink" x="0px" y="0px"
	 viewBox="0 0 512 512" style="enable-background:new 0 0 512 512;" xml:space="preserve">
<g>
	<g>
		<path d="M436.934,62.749c-7.5-7.5-17.471-11.63-28.077-11.63s-20.577,4.13-28.077,11.63c-7.5,7.5-11.629,17.471-11.629,28.077
			c0,10.605,4.129,20.577,11.629,28.076c7.5,7.5,17.471,11.629,28.077,11.629s20.577-4.129,28.077-11.629
			c7.5-7.5,11.629-17.471,11.629-28.076C448.564,80.219,444.434,70.248,436.934,62.749z M426.326,108.293
			c-9.633,9.632-25.306,9.632-34.939,0c-9.632-9.632-9.632-25.306,0-34.938c4.667-4.667,10.87-7.236,17.469-7.236
			c6.599,0,12.802,2.569,17.469,7.236C435.959,82.989,435.959,98.661,426.326,108.293z"/>
	</g>
</g>
<g>
	<g>
		<path d="M345.447,274.485c-18.276-18.276-48.013-18.276-66.289,0c-18.276,18.276-18.276,48.013,0,66.289
			c9.138,9.139,21.141,13.707,33.145,13.707c12.003,0,24.007-4.568,33.145-13.707C363.723,322.498,363.723,292.761,345.447,274.485z
			 M334.84,330.167c-12.427,12.426-32.647,12.427-45.074,0c-12.426-12.427-12.427-32.646-0.001-45.074
			c6.214-6.214,14.375-9.32,22.537-9.32s16.324,3.106,22.537,9.32C347.267,297.52,347.267,317.741,334.84,330.167z"/>
	</g>
</g>
<g>
	<g>
		<path d="M228.709,250.608c-6.746-6.746-15.714-10.46-25.254-10.46c-9.54,0-18.508,3.714-25.254,10.46
			c-13.924,13.924-13.924,36.582,0,50.507c6.746,6.746,15.714,10.46,25.254,10.46c9.54,0,18.508-3.714,25.254-10.46
			c6.746-6.746,10.46-15.714,10.46-25.254C239.17,266.322,235.455,257.354,228.709,250.608z M218.101,290.509
			c-3.912,3.912-9.113,6.067-14.647,6.067c-5.533,0-10.734-2.154-14.647-6.067c-8.076-8.076-8.076-21.216,0-29.292
			c3.912-3.912,9.114-6.067,14.647-6.067s10.734,2.154,14.647,6.067c3.912,3.912,6.067,9.113,6.067,14.647
			C224.168,281.395,222.014,286.596,218.101,290.509z"/>
	</g>
</g>
<g>
	<g>
		<path d="M270.131,145.742c-17.398-17.398-45.708-17.398-63.107,0c-17.399,17.398-17.399,45.708,0,63.107
			c8.699,8.699,20.126,13.048,31.553,13.048c11.427,0,22.854-4.349,31.553-13.048C287.53,191.45,287.53,163.14,270.131,145.742z
			 M259.524,198.241c-11.549,11.549-30.342,11.549-41.891,0c-11.549-11.549-11.549-30.342,0-41.891
			c5.775-5.775,13.36-8.662,20.945-8.662c7.585,0,15.171,2.887,20.945,8.662C271.073,167.899,271.073,186.692,259.524,198.241z"/>
	</g>
</g>
<g>
	<g>
		<path d="M306.814,103.655c-2.928-2.929-7.678-2.929-10.607,0l-9.188,9.188c-2.929,2.929-2.929,7.678,0,10.608
			c2.895,2.896,7.714,2.892,10.607-0.001l9.188-9.188C309.743,111.333,309.743,106.584,306.814,103.655z"/>
	</g>
</g>
<g>
	<g>
		<path d="M408.344,205.186c-2.929-2.929-7.679-2.929-10.608,0l-9.188,9.188c-2.929,2.929-2.929,7.678,0,10.607
			c2.898,2.898,7.708,2.9,10.608,0l9.188-9.188C411.274,212.863,411.274,208.115,408.344,205.186z"/>
	</g>
</g>
<g>
	<g>
		<path d="M365.986,183.781c-0.278-4.133-3.854-7.262-7.987-6.981c-5.955,0.395-11.929-1.934-16.399-6.404
			c-4.469-4.469-6.803-10.446-6.404-16.399c0.278-4.133-2.847-7.709-6.981-7.986c-4.136-0.288-7.709,2.848-7.986,6.981
			c-0.69,10.271,3.233,20.481,10.763,28.012c7.313,7.313,17.651,11.462,28.012,10.763
			C363.139,191.49,366.264,187.915,365.986,183.781z"/>
	</g>
</g>
<g>
	<g>
		<path d="M511.859,20.325c-0.512-10.995-9.19-19.673-20.184-20.187c-33.612-1.575-81.238,10.336-141.56,35.389
			c-3.825,1.589-5.639,5.979-4.049,9.804c1.589,3.826,5.98,5.64,9.804,4.05c58.264-24.199,103.721-35.72,135.105-34.258
			c3.214,0.15,5.751,2.687,5.902,5.901c5.217,111.645-153.468,361.892-179.044,401.439c-0.074-0.033-0.15-0.068-0.225-0.102
			c-50.127-22.623-98.179-51.638-137.231-90.738c-36.248-36.248-63.762-80.5-85.729-126.568c-1.692-3.548-3.351-7.112-4.979-10.689
			c-0.033-0.073-0.067-0.148-0.101-0.221c24.886-16.107,132.87-84.759,237.03-132.025c3.772-1.711,5.443-6.158,3.73-9.93
			c-1.711-3.772-6.157-5.442-9.93-3.73C216.375,95.662,108.734,163.897,82.17,181.063c-6.857-7.273-17.633-10.123-27.508-6.489
			c0,0-37.899,13.946-37.934,13.959c-13.603,5.007-20.424,20.85-14.687,34.179C15.321,253.558,57.12,328.579,120.27,391.728
			c26.087,26.088,56.46,50.858,90.276,73.623c3.437,2.313,8.098,1.402,10.411-2.033c2.313-3.436,1.403-8.098-2.033-10.411
			c-33.016-22.227-62.639-46.38-88.045-71.786C69.337,319.581,28.706,246.713,15.82,216.782c-2.308-5.362,0.422-12.083,6.089-14.168
			l37.934-13.959c5.266-1.938,11.149,0.569,13.397,5.708c14.916,34.091,47.289,98.633,96.527,147.871
			c49.507,49.508,113.88,81.741,147.846,96.548c5.149,2.245,7.663,8.133,5.723,13.404c0,0-13.905,37.787-13.949,37.907
			c-2.059,5.595-8.712,8.438-14.169,6.089c-8.161-3.513-25.609-11.684-50.762-26.934c-3.542-2.147-8.156-1.017-10.303,2.525
			c-2.147,3.542-1.017,8.155,2.525,10.303c19.216,11.649,37.899,21.552,52.608,27.884c13.342,5.744,29.179-1.101,34.179-14.687
			l13.949-37.907c3.635-9.88,0.784-20.655-6.493-27.511c12.455-19.263,51.884-81.317,90.384-153.283
			C483.872,159.612,514.339,73.399,511.859,20.325z"/>
	</g>
</g>
<g>
</g>
<g>
</g>
<g>
</g>
<g>
</g>
<g>
</g>
<g>
</g>
<g>
</g>
<g>
</g>
<g>
</g>
<g>
</g>
<g>
</g>
<g>
</g>
<g>
</g>
<g>
</g>
<g>
</g>
</svg>
