<?xml version="1.0" encoding="iso-8859-1"?>
<!-- Generator: Adobe Illustrator 19.0.0, SVG Export Plug-In . SVG Version: 6.00 Build 0)  -->
<svg version="1.1" id="Capa_1" xmlns="http://www.w3.org/2000/svg" xmlns:xlink="http://www.w3.org/1999/xlink" x="0px" y="0px"
	 viewBox="0 0 511.999 511.999" style="enable-background:new 0 0 511.999 511.999;" xml:space="preserve">
<g>
	<g>
		<path d="M176.977,346.036c-4.142,0-7.5,3.358-7.5,7.5v14.301c0,4.142,3.358,7.5,7.5,7.5c4.142,0,7.5-3.358,7.5-7.5v-14.301
			C184.477,349.394,181.119,346.036,176.977,346.036z"/>
	</g>
</g>
<g>
	<g>
		<path d="M335.017,346.036c-4.142,0-7.5,3.358-7.5,7.5v14.301c0,4.142,3.358,7.5,7.5,7.5c4.142,0,7.5-3.358,7.5-7.5v-14.301
			C342.517,349.394,339.159,346.036,335.017,346.036z"/>
	</g>
</g>
<g>
	<g>
		<path d="M284.895,362.158c-3.119-2.727-7.857-2.408-10.583,0.71c-4.465,5.108-11.141,8.038-18.316,8.038
			s-13.851-2.93-18.316-8.038c-2.726-3.118-7.464-3.437-10.583-0.711c-3.119,2.726-3.437,7.464-0.711,10.583
			c7.316,8.368,18.108,13.167,29.611,13.167c11.503,0,22.295-4.799,29.609-13.166C288.332,369.622,288.014,364.885,284.895,362.158z
			"/>
	</g>
</g>
<g>
	<g>
		<path d="M466.053,98.345c-3.458-4.829-8.591-8.022-14.451-8.991l-29.134-4.817c-3.995-0.661-7.919-0.202-11.458,1.137v-2.463
			c0-12.262-9.976-22.237-22.237-22.237h-29.53c-2.534,0-4.967,0.432-7.237,1.216v-9.465c0-12.262-9.976-22.237-22.237-22.237
			h-29.53c-2.534,0-4.967,0.432-7.237,1.216v-9.465C293,9.976,283.024,0,270.762,0h-29.53c-12.262,0-22.237,9.976-22.237,22.237
			v9.465c-2.271-0.784-4.704-1.216-7.237-1.216h-29.53c-12.262,0-22.237,9.976-22.237,22.237v9.465
			c-2.271-0.784-4.704-1.216-7.237-1.216h-29.53c-12.262,0-22.237,9.976-22.237,22.237v2.464c-3.54-1.339-7.463-1.798-11.458-1.138
			l-29.135,4.817c-12.097,2-20.312,13.47-18.312,25.567l21.663,131.022c-0.277,0.187-0.56,0.372-0.836,0.56
			c-9.078,6.185-13.348,17.488-10.624,28.129l11.49,44.859c1.027,4.013,5.114,6.433,9.126,5.405
			c4.013-1.028,6.433-5.114,5.404-9.126L66.816,270.91c-1.163-4.543,0.661-9.371,4.537-12.011
			c28.481-19.401,60.431-33.26,92.545-45.433c6.113-2.317,7.115,5.659,8.513,9.4c7.843,21.106,26.755,38.154,51.767,46.28
			c0.025,0.009,0.052,0.011,0.078,0.019c42.027,13.471,98.774-1.68,115.339-46.327c0.009-0.025,0.018-0.05,0.027-0.075
			c1.269-3.406,1.462-8.903,5.972-9.565c4.886-0.716,66.343,27.069,90.394,42.621c5.471,3.538,11.104,7.619,9.192,15.09
			l-45.394,177.23H112.21l-25.253-98.596c-1.028-4.013-5.113-6.433-9.126-5.405s-6.432,5.114-5.405,9.126l31.475,122.865
			c5.408,21.12,24.413,35.87,46.217,35.87h211.761c21.805,0,40.811-14.751,46.217-35.87l51.615-201.5
			c2.724-10.64-1.546-21.944-10.625-28.129c-0.275-0.188-0.558-0.372-0.835-0.559l21.663-131.02
			C470.883,109.061,469.512,103.174,466.053,98.345z M100.986,224.494c-7.905,3.975-15.842,8.25-23.472,12.766L56.881,112.474
			c-0.651-3.937,2.022-7.67,5.96-8.321l29.134-4.817c3.886-0.643,7.679,2.073,8.321,5.959l0.69,4.171V224.494z M159.99,198.965
			c-0.47,0.139-0.936,0.295-1.395,0.469c-14.081,5.333-27.992,11.099-41.67,17.395c-0.314,0.145-0.625,0.286-0.94,0.432V83.211
			h0.001c0-3.991,3.247-7.237,7.237-7.237h29.53c3.991,0,7.237,3.247,7.237,7.237V198.965z M218.994,250.921
			c-13.283-6.337-23.951-15.983-30.014-27.65c-4.203-8.088-5.075-18.174-13.99-22.834V52.724h0c0-3.991,3.247-7.237,7.237-7.237
			h29.53c3.991,0,7.237,3.247,7.237,7.237V250.921z M277.999,256.357c-0.17,4.156-44.005,3.202-44.005-0.003
			c0.001-0.097,0.001-234.117,0.001-234.117c0-3.991,3.247-7.237,7.237-7.237h29.53c3.991,0,7.237,3.247,7.237,7.237
			C277.999,22.237,277.999,256.329,277.999,256.357z M337.004,200.436c-4.89,2.556-8.64,7.236-10.012,12.588
			c-0.005,0.019-0.011,0.038-0.017,0.057c-0.938,3.483-2.249,6.857-3.897,10.065c-6.053,11.724-16.751,21.414-30.079,27.773V52.724
			c0.001-3.991,3.247-7.237,7.238-7.237h29.53c3.991,0,7.237,3.247,7.237,7.237V200.436z M396.008,217.261
			c-13.973-6.472-28.202-12.379-42.605-17.825c-0.461-0.174-0.928-0.332-1.4-0.471V83.211c0.001-3.991,3.248-7.237,7.238-7.237
			h29.53c3.991,0,7.237,3.247,7.237,7.237V217.261z M393.564,472.407C389.857,486.887,376.827,497,361.878,497H150.117
			c-14.95,0-27.979-10.113-31.687-24.593c0-0.001,0-0.002-0.001-0.003l-2.375-9.265H395.94L393.564,472.407z M455.114,112.473
			L434.481,237.26c-1.81-1.071-17.464-9.744-23.472-12.766c0,0,0-114.814,0-115.025c0-1.361,0.235-2.806,0.695-4.169
			c1.226-3.628,4.053-6.669,8.316-5.965c0,0,28.995,4.794,29.133,4.817C452.991,104.787,455.745,108.657,455.114,112.473z"/>
	</g>
</g>
<g>
</g>
<g>
</g>
<g>
</g>
<g>
</g>
<g>
</g>
<g>
</g>
<g>
</g>
<g>
</g>
<g>
</g>
<g>
</g>
<g>
</g>
<g>
</g>
<g>
</g>
<g>
</g>
<g>
</g>
</svg>
