<?xml version="1.0" encoding="iso-8859-1"?>
<!-- Generator: Adobe Illustrator 19.0.0, SVG Export Plug-In . SVG Version: 6.00 Build 0)  -->
<svg version="1.1" id="Capa_1" xmlns="http://www.w3.org/2000/svg" xmlns:xlink="http://www.w3.org/1999/xlink" x="0px" y="0px"
	 viewBox="0 0 512 512" style="enable-background:new 0 0 512 512;" xml:space="preserve">
<g>
	<g>
		<path d="M263.282,261.665c-4.142,0-7.499,3.358-7.499,7.499v10.316c0,4.142,3.358,7.499,7.499,7.499
			c4.142,0,7.499-3.358,7.499-7.499v-10.316C270.781,265.023,267.424,261.665,263.282,261.665z"/>
	</g>
</g>
<g>
	<g>
		<path d="M377.285,261.665c-4.142,0-7.499,3.358-7.499,7.499v10.316c0,4.142,3.358,7.499,7.499,7.499
			c4.142,0,7.499-3.358,7.499-7.499v-10.316C384.784,265.023,381.426,261.665,377.285,261.665z"/>
	</g>
</g>
<g>
	<g>
		<path d="M342.505,273.81c-3.118-2.726-7.855-2.408-10.582,0.711c-2.824,3.231-7.066,5.084-11.639,5.084
			c-4.573,0-8.815-1.853-11.639-5.084c-2.727-3.119-7.463-3.437-10.582-0.711s-3.437,7.463-0.711,10.582
			c5.672,6.489,14.031,10.211,22.932,10.211s17.259-3.722,22.932-10.211C345.942,281.274,345.623,276.536,342.505,273.81z"/>
	</g>
</g>
<g>
	<g>
		<path d="M505.475,327.517L336.973,152.369c-4.407-4.581-10.333-7.103-16.69-7.103H191.715c-6.356,0-12.284,2.523-16.69,7.103
			L6.524,327.517c-6.548,6.807-8.319,16.435-4.621,25.126c3.699,8.691,11.864,14.091,21.31,14.091h465.571
			c9.446,0,17.611-5.398,21.311-14.091C513.794,343.952,512.025,334.324,505.475,327.517z M23.214,351.735
			c-5.008,0-7.013-3.801-7.509-4.966s-1.843-5.246,1.628-8.854l168.502-175.148c1.553-1.614,3.642-2.503,5.881-2.503h18.542
			L26.052,351.735H23.214z M130.106,351.734c0,0.001-24.261-0.011-24.367-0.014c-4.771-0.159-6.709-3.811-7.195-4.951
			c-1.295-3.043-0.652-6.484,1.628-8.854c0,0,107.266-111.498,107.367-111.603c2.782-2.892,2.694-7.814-0.205-10.604
			c-2.984-2.873-7.731-2.78-10.603,0.205c0,0-107.345,111.579-107.367,111.603c-6.11,6.351-8.109,15.975-4.986,24.218H46.865
			l184.205-191.471h19.199l-33.859,35.194c-2.872,2.985-2.78,7.732,0.205,10.603c2.985,2.872,7.732,2.78,10.603-0.205
			c0,0,41.435-43.069,41.455-43.089c1.449-1.507,3.585-2.453,5.715-2.495c0.056-0.001,0.11-0.008,0.166-0.008h21.441
			c0,0-160.887,167.233-160.906,167.253C128.935,333.916,126.942,343.418,130.106,351.734z M496.295,346.77
			c-0.496,1.165-2.502,4.966-7.509,4.966H151.782c-5.008,0-7.014-3.801-7.509-4.966c-0.496-1.165-1.844-5.246,1.628-8.854
			l168.501-175.148c1.553-1.614,3.642-2.503,5.881-2.503c2.24,0,4.329,0.889,5.881,2.503l168.502,175.148
			C498.138,341.524,496.791,345.605,496.295,346.77z"/>
	</g>
</g>
<g>
</g>
<g>
</g>
<g>
</g>
<g>
</g>
<g>
</g>
<g>
</g>
<g>
</g>
<g>
</g>
<g>
</g>
<g>
</g>
<g>
</g>
<g>
</g>
<g>
</g>
<g>
</g>
<g>
</g>
</svg>
