<?xml version="1.0" encoding="iso-8859-1"?>
<!-- Generator: Adobe Illustrator 19.0.0, SVG Export Plug-In . SVG Version: 6.00 Build 0)  -->
<svg version="1.1" id="Capa_1" xmlns="http://www.w3.org/2000/svg" xmlns:xlink="http://www.w3.org/1999/xlink" x="0px" y="0px"
	 viewBox="0 0 512 512" style="enable-background:new 0 0 512 512;" xml:space="preserve">
<g>
	<g>
		<path d="M467.274,387.127c-3.16-2.68-7.894-2.292-10.574,0.868c-5.605,6.606-12.212,12.193-19.637,16.604
			c-13.324,7.915-24.55,19.14-32.465,32.466c-13.781,23.202-39.108,37.824-66.092,38.158c-15.496,0.192-30.831,4.301-44.347,11.883
			c-23.537,13.203-52.781,13.203-76.318,0c-13.516-7.581-28.851-11.691-44.347-11.883c-26.986-0.334-52.311-14.956-66.092-38.158
			c-7.915-13.324-19.141-24.55-32.466-32.466c-23.202-13.782-37.824-39.107-38.158-66.092c-0.192-15.496-4.3-30.831-11.883-44.347
			c-13.203-23.537-13.203-52.781,0-76.318c7.582-13.516,11.692-28.851,11.883-44.347c0.11-8.867,1.723-17.596,4.794-25.944
			c1.43-3.89-0.562-8.203-4.451-9.633c-3.886-1.43-8.201,0.562-9.631,4.451c-3.661,9.953-5.584,20.363-5.715,30.939
			c-0.161,12.996-3.606,25.856-9.965,37.192c-15.743,28.066-15.743,62.934,0,90.999c6.359,11.337,9.805,24.197,9.965,37.194
			c0.399,32.176,17.834,62.374,45.5,78.807c11.175,6.636,20.59,16.052,27.228,27.226c16.433,27.666,46.63,45.101,78.807,45.5
			c12.995,0.161,25.856,3.606,37.193,9.966C224.533,508.064,240.266,512,256,512s31.467-3.936,45.5-11.808
			c11.336-6.359,24.196-9.805,37.192-9.965c32.177-0.399,62.374-17.834,78.807-45.5c6.637-11.174,16.053-20.59,27.227-27.227
			c8.857-5.261,16.735-11.922,23.417-19.798C470.823,394.542,470.434,389.807,467.274,387.127z"/>
	</g>
</g>
<g>
	<g>
		<path d="M500.192,210.499c-6.359-11.336-9.805-24.196-9.965-37.193c-0.399-32.177-17.834-62.374-45.5-78.807
			c-11.174-6.637-20.59-16.052-27.227-27.227c-16.433-27.667-46.631-45.102-78.807-45.5c-12.996-0.161-25.856-3.606-37.192-9.965
			c-28.066-15.743-62.934-15.743-91,0c-11.336,6.359-24.196,9.805-37.192,9.965c-32.177,0.398-62.374,17.833-78.807,45.5
			c-6.638,11.175-16.053,20.59-27.227,27.227c-8.944,5.313-16.887,12.052-23.611,20.029c-2.67,3.168-2.266,7.901,0.902,10.571
			c3.169,2.67,7.902,2.266,10.571-0.902c5.639-6.692,12.3-12.344,19.798-16.797c13.323-7.914,24.55-19.139,32.465-32.464
			c13.782-23.203,39.108-37.825,66.092-38.158c15.496-0.192,30.831-4.3,44.348-11.883c23.537-13.203,52.78-13.203,76.317,0
			c13.516,7.582,28.851,11.692,44.347,11.883c26.986,0.334,52.31,14.956,66.092,38.158c7.916,13.325,19.141,24.551,32.466,32.464
			c23.202,13.782,37.824,39.108,38.158,66.093c0.192,15.496,4.3,30.831,11.883,44.347c13.203,23.537,13.203,52.78,0,76.318
			c-7.581,13.518-11.69,28.853-11.882,44.348c-0.111,8.98-1.761,17.811-4.904,26.247c-1.446,3.883,0.529,8.203,4.411,9.649
			c0.863,0.321,1.748,0.474,2.618,0.474c3.043,0,5.907-1.866,7.031-4.886c3.747-10.059,5.714-20.59,5.847-31.3
			c0.161-12.996,3.606-25.856,9.965-37.193C515.935,273.434,515.935,238.565,500.192,210.499z"/>
	</g>
</g>
<g>
	<g>
		<path d="M277.485,56.784c-17.878,0-32.421,12.512-32.421,27.891s14.545,27.891,32.421,27.891
			c17.878,0.001,32.422-12.512,32.422-27.891C309.908,69.295,295.363,56.784,277.485,56.784z M277.485,97.562
			c-9.441,0-17.417-5.901-17.417-12.886s7.976-12.886,17.417-12.886c9.441,0,17.418,5.901,17.418,12.886
			S286.926,97.562,277.485,97.562z"/>
	</g>
</g>
<g>
	<g>
		<path d="M90.857,221.812c-17.878,0-32.422,12.512-32.422,27.891c0,15.38,14.545,27.892,32.422,27.892s32.422-12.513,32.422-27.892
			C123.279,234.324,108.735,221.812,90.857,221.812z M90.858,262.589c-9.441,0-17.418-5.901-17.418-12.887
			c0-6.984,7.977-12.886,17.418-12.886s17.418,5.901,17.418,12.886C108.275,256.688,100.299,262.589,90.858,262.589z"/>
	</g>
</g>
<g>
	<g>
		<path d="M247.785,390.489c-17.878,0-32.422,12.512-32.422,27.891c0,15.38,14.545,27.891,32.422,27.891
			c17.878,0,32.422-12.512,32.422-27.891S265.662,390.489,247.785,390.489z M247.784,431.266c-9.441,0-17.418-5.901-17.418-12.886
			s7.977-12.886,17.418-12.886s17.418,5.901,17.418,12.886S257.225,431.266,247.784,431.266z"/>
	</g>
</g>
<g>
	<g>
		<path d="M158.04,97.562c-26.05,0-47.245,17.952-47.245,40.019c0,22.067,21.195,40.019,47.245,40.019
			c26.05,0,47.245-17.953,47.245-40.019C205.285,115.514,184.09,97.562,158.04,97.562z M158.04,162.595
			c-17.777,0-32.24-11.222-32.24-25.014c0-13.792,14.463-25.014,32.24-25.014s32.24,11.222,32.24,25.014
			C190.28,151.373,175.817,162.595,158.04,162.595z"/>
	</g>
</g>
<g>
	<g>
		<path d="M363.795,329.471c-22.442,0-40.699,15.55-40.699,34.663c0,19.114,18.257,34.663,40.699,34.663
			c22.442,0,40.699-15.55,40.699-34.663S386.237,329.471,363.795,329.471z M363.795,383.792c-14.168,0-25.694-8.818-25.694-19.658
			s11.527-19.658,25.694-19.658c14.168,0,25.694,8.819,25.694,19.658S377.963,383.792,363.795,383.792z"/>
	</g>
</g>
<g>
	<g>
		<path d="M376.302,119.667c-21.129,0-38.318,14.676-38.318,32.716c0,18.04,17.19,32.716,38.318,32.716
			c21.129,0,38.318-14.676,38.318-32.716C414.62,134.343,397.431,119.667,376.302,119.667z M376.302,170.093
			c-12.855,0-23.313-7.945-23.313-17.711c0-9.766,10.458-17.711,23.313-17.711c12.855,0,23.314,7.945,23.314,17.711
			C399.616,162.149,389.157,170.093,376.302,170.093z"/>
	</g>
</g>
<g>
	<g>
		<path d="M419.468,225.64c-15.297,0-27.743,10.794-27.743,24.063c0,13.268,12.445,24.063,27.743,24.063
			s27.742-10.794,27.742-24.063C447.21,236.435,434.765,225.64,419.468,225.64z M419.468,258.761
			c-6.904,0-12.738-4.148-12.738-9.058c0-4.91,5.834-9.058,12.738-9.058s12.737,4.147,12.737,9.058S426.372,258.761,419.468,258.761
			z"/>
	</g>
</g>
<g>
	<g>
		<path d="M135.829,340.071c-15.297,0-27.743,10.794-27.743,24.063s12.445,24.063,27.743,24.063
			c15.297,0,27.742-10.794,27.742-24.063C163.57,350.866,151.125,340.071,135.829,340.071z M135.829,373.192
			c-6.904,0-12.738-4.148-12.738-9.058c0-4.91,5.833-9.058,12.738-9.058c6.904,0,12.737,4.147,12.737,9.058
			S142.733,373.192,135.829,373.192z"/>
	</g>
</g>
<g>
	<g>
		<path d="M185.329,237.377c-4.143,0-7.502,3.359-7.502,7.502v12.79c0,4.143,3.359,7.502,7.502,7.502
			c4.143,0,7.502-3.359,7.502-7.502v-12.79C192.832,240.736,189.473,237.377,185.329,237.377z"/>
	</g>
</g>
<g>
	<g>
		<path d="M326.67,237.377c-4.143,0-7.502,3.359-7.502,7.502v12.79c0,4.143,3.359,7.502,7.502,7.502s7.502-3.359,7.502-7.502v-12.79
			C334.172,240.736,330.813,237.377,326.67,237.377z"/>
	</g>
</g>
<g>
	<g>
		<path d="M282.368,251.992c-3.119-2.727-7.859-2.409-10.586,0.711c-3.842,4.396-9.594,6.917-15.782,6.917
			c-6.187,0-11.94-2.522-15.783-6.917c-2.728-3.12-7.467-3.438-10.586-0.71c-3.12,2.728-3.438,7.466-0.71,10.586
			c6.692,7.655,16.562,12.046,27.08,12.046c10.518-0.001,20.388-4.391,27.08-12.047
			C285.806,259.458,285.488,254.719,282.368,251.992z"/>
	</g>
</g>
<g>
</g>
<g>
</g>
<g>
</g>
<g>
</g>
<g>
</g>
<g>
</g>
<g>
</g>
<g>
</g>
<g>
</g>
<g>
</g>
<g>
</g>
<g>
</g>
<g>
</g>
<g>
</g>
<g>
</g>
</svg>
