<svg height="512" viewBox="0 0 128 128" width="512" xmlns="http://www.w3.org/2000/svg" xmlns:xlink="http://www.w3.org/1999/xlink"><linearGradient id="a" gradientUnits="userSpaceOnUse" x1="113.511" x2="21.346" y1="101.854" y2="9.69"><stop offset="0" stop-color="#f35d2e"/><stop offset="1" stop-color="#ffde3e"/></linearGradient><path d="m94.481 13.49a1.75 1.75 0 0 1 1.75-1.75h4.5a1.75 1.75 0 0 1 0 3.5h-4.5a1.751 1.751 0 0 1 -1.75-1.75zm-26.624 8.755v5.495h53.836a1.749 1.749 0 0 1 1.75 1.75v7a1.75 1.75 0 0 1 -1.75 1.75h-53.836v20.01h53.836a1.75 1.75 0 0 1 1.75 1.75 59.382 59.382 0 0 1 -30.5 51.913v9.78a1.749 1.749 0 0 1 -1.75 1.75h-54.393a1.749 1.749 0 0 1 -1.75-1.75v-9.8a59.594 59.594 0 0 1 -11.35-8.206 1.75 1.75 0 1 1 2.373-2.572 56.137 56.137 0 0 0 11.176 8.021h53.504a55.9 55.9 0 0 0 29.163-47.386h-111.832a56.051 56.051 0 0 0 12.477 33.5 1.75 1.75 0 0 1 -2.716 2.208 59.554 59.554 0 0 1 -13.288-37.458 1.75 1.75 0 0 1 1.75-1.75h21.646v-20.005h-6.485a5.253 5.253 0 0 1 0-10.5h6.485v-5.5h-6.485a5.253 5.253 0 0 1 0-10.5h6.5a7.482 7.482 0 0 1 7.465-7.183h24.944a7.482 7.482 0 0 1 7.465 7.183h19.733a1.75 1.75 0 0 1 0 3.5h-19.718v3.505h52.086v-3.51h-10.975a1.75 1.75 0 0 1 0-3.5h12.725a1.749 1.749 0 0 1 1.75 1.75v7.01a1.75 1.75 0 0 1 -1.75 1.75zm21.589 97.7v-7.307h-50.892v7.307zm-40.02-61.695h5.725v-50.193h-5.725zm-3.5-50.193h-5.726v50.193h5.724zm-17.973 10.688v-3.505h-6.485a1.753 1.753 0 0 0 0 3.505zm0 16v-3.5h-6.485a1.753 1.753 0 0 0 0 3.5zm3.5 23.505h5.247v-50.193h-1.267a3.984 3.984 0 0 0 -3.98 3.98zm32.9 0v-46.213a3.984 3.984 0 0 0 -3.98-3.98h-1.722v50.193zm3.5-27.01v3.5h52.086v-3.5zm37.747 48.939a1.749 1.749 0 0 0 -2.368.719 44.522 44.522 0 0 1 -17.39 17.812 1.75 1.75 0 1 0 1.722 3.047 48.013 48.013 0 0 0 18.752-19.21 1.75 1.75 0 0 0 -.716-2.368zm1.875-4.434a1.75 1.75 0 0 0 2.2-1.135 47.626 47.626 0 0 0 1.344-5.2 1.75 1.75 0 1 0 -3.433-.683 44.058 44.058 0 0 1 -1.245 4.821 1.751 1.751 0 0 0 1.131 2.197z" fill="url(#a)"/></svg>