<svg height="512" viewBox="0 0 128 128" width="512" xmlns="http://www.w3.org/2000/svg" xmlns:xlink="http://www.w3.org/1999/xlink"><linearGradient id="a" gradientUnits="userSpaceOnUse" x1="103.695" x2="24.305" y1="111.667" y2="32.276"><stop offset="0" stop-color="#f35d2e"/><stop offset="1" stop-color="#ffde3e"/></linearGradient><path d="m95.256 97.25-.422 4.474a1.75 1.75 0 0 1 -1.74 1.586 1.537 1.537 0 0 1 -.166-.008 1.749 1.749 0 0 1 -1.578-1.902l.421-4.475a1.75 1.75 0 0 1 3.485.329zm-50.825-.75a1.75 1.75 0 0 0 1.578-1.906l-.425-4.507a1.75 1.75 0 0 0 -3.484.328l.424 4.507a1.75 1.75 0 0 0 1.741 1.578zm1.659 19.36c.055 0 .11 0 .166-.007a1.75 1.75 0 0 0 1.578-1.907l-1.173-12.434a1.75 1.75 0 1 0 -3.484.329l1.173 12.434a1.749 1.749 0 0 0 1.74 1.585zm54.71-58.038v21.665a1.75 1.75 0 0 1 -1.75 1.75h-2.284l-.7 7.4a1.749 1.749 0 0 1 -1.74 1.585 1.55 1.55 0 0 1 -.166-.008 1.749 1.749 0 0 1 -1.578-1.906l.667-7.073h-13.321a6.591 6.591 0 0 1 -6.438 5.225h-.529a6.592 6.592 0 0 1 -6.439-5.223h-31.772l3.65 38.706h51.2l.976-10.353a1.75 1.75 0 0 1 3.485.329l-1.126 11.939a1.75 1.75 0 0 1 -1.743 1.585h-54.385a1.75 1.75 0 0 1 -1.743-1.586l-3.83-40.62h-2.287a1.75 1.75 0 0 1 -1.75-1.75v-8.436a1.75 1.75 0 0 1 3.5 0v6.686h35.683v-5.029a3.084 3.084 0 0 0 -3.08-3.081h-1.107a6.587 6.587 0 0 1 -6.58-6.58v-4.976h-24.913v5.3a1.75 1.75 0 1 1 -3.5 0v-5.549a10.456 10.456 0 0 1 2.247-20.669h.7a10.211 10.211 0 0 1 8.848-15.334h5.6a19.546 19.546 0 0 1 38.824 0h5.6a10.211 10.211 0 0 1 8.848 15.334h.7a10.456 10.456 0 0 1 2.233 20.669zm-3.5 19.915v-19.666h-7.57v7.6a6.587 6.587 0 0 1 -6.58 6.58 3.084 3.084 0 0 0 -3.08 3.081v2.4h17.23zm8.212-30.125a6.967 6.967 0 0 0 -6.959-6.959h-4.575a1.75 1.75 0 0 1 -1.029-3.166 6.72 6.72 0 0 0 -3.94-12.168h-7.223a1.75 1.75 0 0 1 -1.749-1.7 16.044 16.044 0 0 0 -32.074 0 1.75 1.75 0 0 1 -1.749 1.7h-7.223a6.72 6.72 0 0 0 -3.94 12.168 1.75 1.75 0 0 1 -1.029 3.166h-4.578a6.959 6.959 0 0 0 0 13.918h27.919a1.75 1.75 0 0 1 1.75 1.75v6.726a3.083 3.083 0 0 0 3.08 3.08h1.107a6.589 6.589 0 0 1 6.58 6.581v7.171a3.084 3.084 0 0 0 3.081 3.081h.529a3.084 3.084 0 0 0 3.08-3.081v-4.544a6.589 6.589 0 0 1 6.58-6.581 3.083 3.083 0 0 0 3.08-3.08v-9.353a1.751 1.751 0 0 1 1.75-1.75h10.576a6.967 6.967 0 0 0 6.959-6.959zm-34.026-23.67a1.75 1.75 0 0 0 2.475-2.474l-3.053-3.053a1.75 1.75 0 1 0 -2.474 2.475zm-15.865 4.893a1.751 1.751 0 0 0 -2.336.82l-1.409 2.936a1.75 1.75 0 1 0 3.156 1.509l1.409-2.935a1.75 1.75 0 0 0 -.82-2.33zm21.92 3.937a1.75 1.75 0 0 0 -2.455.311l-2.186 2.817a1.75 1.75 0 1 0 2.766 2.144l2.184-2.818a1.75 1.75 0 0 0 -.309-2.454zm-36.332 10.371-3.287 1.878a1.75 1.75 0 1 0 1.736 3.04l3.287-1.879a1.75 1.75 0 1 0 -1.736-3.039zm29.628 8.578a1.75 1.75 0 1 0 -2.432 2.517l3.406 3.288a1.75 1.75 0 0 0 2.431-2.518zm22.227-4.731-2.664-1.879a1.75 1.75 0 0 0 -2.019 2.86l2.66 1.878a1.75 1.75 0 0 0 2.019-2.859z" fill="url(#a)"/></svg>