<svg height="512" viewBox="0 0 128 128" width="512" xmlns="http://www.w3.org/2000/svg" xmlns:xlink="http://www.w3.org/1999/xlink"><linearGradient id="a" gradientUnits="userSpaceOnUse" x1="114.234" x2="13.766" y1="124.024" y2="23.557"><stop offset="0" stop-color="#f35d2e"/><stop offset="1" stop-color="#ffde3e"/></linearGradient><path d="m41.373 121.7a1.75 1.75 0 0 1 -1.75 1.75h-4.5a1.75 1.75 0 0 1 0-3.5h4.5a1.751 1.751 0 0 1 1.75 1.75zm82.07-85.312v12.112a1.749 1.749 0 0 1 -1.75 1.75h-1.687v5.528a1.75 1.75 0 1 1 -3.5 0v-5.524h-38.206a4.1 4.1 0 0 0 -4.1 4.1v16.5h42.305v-7.395a1.75 1.75 0 0 1 3.5 0v51.228a8.876 8.876 0 0 1 -8.966 8.762h-62.76a1.75 1.75 0 0 1 0-3.5h62.761a5.373 5.373 0 0 0 5.466-5.262v-15.335h-105.012v15.335a5.373 5.373 0 0 0 5.466 5.262h9.926a1.75 1.75 0 1 1 0 3.5h-9.926a8.875 8.875 0 0 1 -8.966-8.762v-64.433h-1.687a1.749 1.749 0 0 1 -1.75-1.75v-12.117a8.765 8.765 0 0 1 8.755-8.755h39.847a10.516 10.516 0 0 1 1.916-15.781c-.964-1.547-3.253-3.968-8.1-3.79a1.75 1.75 0 0 1 -.133-3.5c6.35-.25 9.922 3.11 11.458 5.839a10.38 10.38 0 0 1 7.957 1.067c4.038-4.42 9.665-6.744 16.764-6.9a1.714 1.714 0 0 1 1.75 1.382c.089.419 2.138 10.365-3.817 17.735a17.453 17.453 0 0 1 -4.543 3.952h38.277a8.765 8.765 0 0 1 8.755 8.751zm-54.481-22.688a10.488 10.488 0 0 1 .6 13 15.935 15.935 0 0 0 8.671-5.221c3.705-4.584 3.607-10.612 3.326-13.344-5.296.4-9.515 2.276-12.597 5.565zm-7.979 13.932a7.039 7.039 0 0 0 4.676-12.308 1.7 1.7 0 0 1 -.189-.118 1.809 1.809 0 0 1 -.26-.249 7.044 7.044 0 1 0 -4.227 12.675zm-49.489 22.622v20.6h22.333v-16.504a4.1 4.1 0 0 0 -4.1-4.1zm105.012 24.1h-42.392a7.586 7.586 0 0 1 -15.018 0h-9.178v10.6a7.605 7.605 0 0 1 -7.6 7.6h-.9a7.6 7.6 0 0 1 -7.595-7.6v-10.6h-22.329v21.5h105.012zm-58.237-3.5a4.054 4.054 0 0 0 -3.356-1.782h-.9a4.092 4.092 0 0 0 -3.374 1.782zm20.031-24.1h41.646v-10.367a5.26 5.26 0 0 0 -5.255-5.255h-101.379a5.26 5.26 0 0 0 -5.255 5.255v10.367h21.673a7.605 7.605 0 0 1 7.6 7.6v30.602a4.1 4.1 0 0 0 4.095 4.1h.9a4.1 4.1 0 0 0 4.1-4.1v-11.79c0-.189.015-.374.028-.559v-.02a7.6 7.6 0 0 1 7.567-7.017h.9a7.6 7.6 0 0 1 7.56 7.03c.014.186.028.372.028.562a4.1 4.1 0 1 0 8.192.1v-18.912a7.6 7.6 0 0 1 7.6-7.596zm-54.642-10.115-1.458 1.354a1.75 1.75 0 0 0 2.381 2.566l1.458-1.359a1.75 1.75 0 0 0 -2.381-2.565zm28.722 8.648a1.75 1.75 0 0 0 -2.474 2.475l1.98 1.98a1.75 1.75 0 1 0 2.474-2.475zm27.485-9.454a1.75 1.75 0 0 0 -2.343.8l-1.022 2.08a1.75 1.75 0 1 0 3.139 1.548l1.027-2.084a1.75 1.75 0 0 0 -.801-2.344zm27.177 1.943-1.876-.417a1.75 1.75 0 0 0 -.76 3.417l1.876.417a1.788 1.788 0 0 0 .382.042 1.75 1.75 0 0 0 .378-3.459z" fill="url(#a)"/></svg>