<svg height="512pt" viewBox="-31 0 511 512" width="512pt" xmlns="http://www.w3.org/2000/svg"><path d="m441.257812 212.398438c-11.699218-43.5-43.800781-75-87.902343-86.097657-41.097657-10.5-84.597657-.601562-108.597657 24.597657-5.101562 5.402343-12.300781 8.101562-19.5 8.101562-7.203124 0-14.402343-2.699219-19.503906-8.101562-25.199218-26.398438-65.699218-36.898438-106.5-27-43.5 10.5-76.796875 42.300781-89.097656 84.902343-10.800781 37.199219-12.601562 83.097657-5.101562 125.097657 17.101562 98.402343 77.101562 178.101562 139.203124 178.101562 12.300782 0 24-3 35.097657-9 14.402343-7.800781 30-11.699219 45.902343-11.699219 15.898438 0 31.5 3.898438 45.898438 11.699219 11.101562 6 22.800781 9 35.101562 9 62.097657 0 122.097657-79.699219 139.199219-178.101562 7.199219-40.5 5.699219-84.898438-4.199219-121.5zm0 0" fill="#ff4949"/><path d="m445.457031 333.898438c-17.097656 98.402343-77.097656 178.101562-139.199219 178.101562-12.300781 0-24-3-35.097656-9-14.402344-7.800781-30-11.699219-45.902344-11.699219v-332.300781c7.199219 0 14.398438-2.699219 19.5-8.101562 24-25.199219 67.5-35.097657 108.601563-24.597657 44.097656 11.097657 76.199219 42.597657 87.898437 86.097657 9.898438 36.601562 11.398438 81 4.199219 121.5zm0 0" fill="#ff193d"/><path d="m225.257812 51.300781c-18.300781-30.601562-51.601562-51.300781-90-51.300781h-60c-8.402343 0-15 6.597656-15 15 0 57.898438 47.097657 105 105 105h60c8.398438 0 15-6.601562 15-15 0-19.5-5.402343-38.101562-15-53.699219zm0 0" fill="#93bf00"/><path d="m360.257812 45c0 8.398438-6.601562 15-15 15-57.902343 0-105 47.101562-105 105v9.300781c0 8.398438-6.601562 15-15 15-8.402343 0-15-6.601562-15-15v-9.300781c0-22.199219 5.398438-43.199219 15-61.800781 22.5-43.5 67.800782-73.199219 120-73.199219 8.398438 0 15 6.597656 15 15zm0 0" fill="#b35f49"/><path d="m360.257812 45c0 8.398438-6.601562 15-15 15-57.902343 0-105 47.101562-105 105v9.300781c0 8.398438-6.601562 15-15 15v-86.101562c22.5-43.5 67.800782-73.199219 120-73.199219 8.398438 0 15 6.597656 15 15zm0 0" fill="#99503d"/></svg>