<?xml version="1.0"?>
<svg xmlns="http://www.w3.org/2000/svg" xmlns:xlink="http://www.w3.org/1999/xlink" width="512" height="512" viewBox="0 0 128 128"><defs><linearGradient id="a" x1="99.061" y1="120.921" x2="18.366" y2="40.225" gradientUnits="userSpaceOnUse"><stop offset="0" stop-color="#f35d2e"/><stop offset="1" stop-color="#ffde3e"/></linearGradient></defs><path d="M89.506,38.134a1.75,1.75,0,1,1,2.324-2.617A41.97,41.97,0,0,1,103.914,54a1.75,1.75,0,0,1-3.332,1.074A38.452,38.452,0,0,0,89.506,38.134ZM82.724,33.31a1.75,1.75,0,0,0,1.707-3.055,41.743,41.743,0,0,0-6.168-2.817,1.75,1.75,0,1,0-1.19,3.291A38.353,38.353,0,0,1,82.724,33.31Zm40.719,29.039v11.3a1.749,1.749,0,0,1-1.75,1.75H6.307a1.749,1.749,0,0,1-1.75-1.75v-11.3a1.749,1.749,0,0,1,1.75-1.75h6.337A51.816,51.816,0,0,1,22.1,37.354a1.75,1.75,0,0,1,2.824,2.069A48.287,48.287,0,0,0,16.18,60.6h95.659a48.409,48.409,0,0,0-82.1-26.792,1.75,1.75,0,0,1-2.477-2.473A51.515,51.515,0,0,1,54.468,16.973a9.871,9.871,0,1,1,19.065,0A51.81,51.81,0,0,1,115.371,60.6h6.322A1.749,1.749,0,0,1,123.443,62.349ZM64,16.093a52.442,52.442,0,0,1,6.029.36,6.371,6.371,0,1,0-12.058,0A52.646,52.646,0,0,1,64,16.093ZM119.943,64.1H8.057v7.8H119.943ZM94.1,101.989h-4.5a1.75,1.75,0,1,0,0,3.5h4.5a1.75,1.75,0,1,0,0-3.5ZM111.5,91H89.319a7.24,7.24,0,0,0-6.2-10.985H41.928a15.757,15.757,0,0,0-13.652,7.922L9.49,120.825a1.75,1.75,0,0,0,1.52,2.618H39.763a1.747,1.747,0,0,0,1.513-.872l9.907-17.082H81.367a1.75,1.75,0,0,0,0-3.5H50.175a1.75,1.75,0,0,0-1.514.872l-9.906,17.082H14.025l17.29-30.265a12.249,12.249,0,0,1,10.613-6.159H83.121a3.743,3.743,0,0,1,0,7.485H60.15a1.75,1.75,0,1,0,0,3.5H111.5a3.743,3.743,0,1,1,0,7.485h-8.736a1.75,1.75,0,0,0,0,3.5H111.5A7.243,7.243,0,1,0,111.5,91Z" fill="url(#a)"/></svg>
